<svg width="32" height="38" viewBox="0 0 32 38" fill="none" xmlns="http://www.w3.org/2000/svg">
<path d="M0.527293 0.5C0.673779 0.500314 0.820266 0.500627 0.971191 0.50095C1.21934 0.500966 1.21934 0.500966 1.4725 0.500983C1.74254 0.502076 1.74254 0.502076 2.01803 0.503192C2.29285 0.503492 2.29285 0.503492 2.57323 0.503797C3.06114 0.504338 3.54903 0.505726 4.03693 0.507287C4.53448 0.50873 5.03202 0.509376 5.52957 0.510088C6.50641 0.511605 7.48324 0.514016 8.46008 0.516985C8.46042 0.628457 8.46076 0.739929 8.46111 0.854778C8.46956 3.57598 8.48034 6.29717 8.49366 9.01835C8.50005 10.3343 8.50567 11.6503 8.50944 12.9663C8.51273 14.1143 8.5175 15.2622 8.52401 16.4102C8.5274 17.0171 8.53008 17.6241 8.53098 18.2311C8.53185 18.8042 8.53473 19.3774 8.53905 19.9505C8.54029 20.1591 8.54084 20.3677 8.54058 20.5763C8.53835 23.2477 8.91321 25.903 10.8471 27.9055C12.9809 29.8699 15.8946 30.5508 18.7462 30.4981C20.8786 30.4097 22.7314 29.8311 24.5599 28.7651C24.6554 28.7108 24.7509 28.6565 24.8493 28.6005C26.2545 27.7955 27.4833 26.8692 28.6918 25.7991C28.8876 25.6343 29.0835 25.4695 29.2795 25.3047C29.8404 24.8188 30.3593 24.2916 30.8746 23.7588C31.0442 23.5863 31.221 23.4209 31.3988 23.2567C31.4928 23.2567 31.5869 23.2567 31.6838 23.2567C31.5256 27.2547 29.9567 30.8605 27.0683 33.6589C26.5067 34.1614 25.9086 34.5762 25.2723 34.9797C25.1134 35.0881 25.1134 35.0881 24.9512 35.1987C23.8611 35.9064 22.657 36.2828 21.4254 36.6746C21.2205 36.7426 21.2205 36.7426 21.0114 36.812C16.7641 38.105 11.5389 37.5151 7.61614 35.5485C4.27042 33.785 1.95583 30.8608 0.84402 27.279C0.806633 27.1548 0.769247 27.0305 0.730727 26.9025C0.695636 26.7896 0.660546 26.6766 0.624391 26.5602C-0.156861 23.8267 0.0133541 20.9146 0.020379 18.1022C0.0216442 17.4879 0.0213793 16.8736 0.0213249 16.2594C0.0214575 15.2312 0.0226846 14.2031 0.0246403 13.1749C0.0268943 11.9855 0.0276315 10.7961 0.0275275 9.60675C0.0274315 8.33731 0.0284174 7.06786 0.0297283 5.79842C0.0300322 5.43299 0.0301331 5.06756 0.0301897 4.70213C0.0303323 4.13046 0.0311973 3.55879 0.0326355 2.98712C0.0330532 2.77696 0.0332267 2.56679 0.0331445 2.35663C0.0330751 2.07107 0.0339648 1.7855 0.0349125 1.49994C0.0352707 1.25981 0.0352707 1.25981 0.0356361 1.01482C0.0593823 0.552794 0.0631186 0.523829 0.527293 0.5Z" fill="#080808"/>
<path d="M23.5626 0.517C26.2896 0.517 29.0166 0.517 31.8262 0.517C31.9112 3.62468 31.985 6.73048 31.994 9.8393C31.9949 10.1358 31.9964 10.4323 31.9983 10.7288C32.0194 14.1584 31.8762 17.3019 29.324 19.8758C27.7594 21.4007 25.6324 23.009 23.4201 23.398C23.4155 20.672 23.4272 17.9464 23.4489 15.2205C23.453 14.7006 23.4569 14.1808 23.4609 13.6609C23.4683 12.6836 23.4759 11.7063 23.4836 10.729C23.494 9.40334 23.5041 8.07767 23.5142 6.75199C23.5302 4.67366 23.5464 2.59533 23.5626 0.517Z" fill="#203A63"/>
</svg>
