<svg width="1013" height="541" viewBox="0 0 1013 541" fill="none" xmlns="http://www.w3.org/2000/svg">
<path d="M669.694 37.1791C670.115 36.2107 669.878 34.9597 671.299 34.4126C671.74 34.2435 671.749 32.9505 671.968 32.1238C673.392 31.9989 674.492 32.6038 675.405 33.6195C676.044 34.3319 676.849 34.786 677.718 34.3288C680.12 33.0648 682.655 33.0046 685.845 33.4884C685.209 32.6457 684.945 32.1985 684.59 31.8434C683.403 30.6602 683.611 29.4517 685.148 28.9351C685.551 28.7995 686.004 28.7972 686.436 28.7683C689.38 28.5717 692.325 28.3896 695.268 28.1839C695.512 28.1672 695.747 28.0155 696.205 27.8456L695.593 25.9759C695.734 25.7275 695.759 25.6071 695.821 25.5827C699.255 24.2448 702.434 22.2028 706.298 22.0649C707.932 22.007 709.562 21.62 711.175 21.2893C713.469 20.8184 715.722 20.3369 718.119 20.4832C719.632 20.5754 721.184 20.0344 722.898 19.7472C722.831 17.9254 724.018 17.4995 725.513 17.1802C728.034 16.6408 730.367 16.944 732.911 17.472C737.799 18.4854 742.635 20.0718 747.734 19.8836C750.827 19.7693 753.796 20.2614 756.501 21.8828C756.725 22.0169 757.01 22.0801 757.183 22.2584C757.767 22.8581 758.67 23.4326 758.79 24.1305C758.971 25.1827 757.864 25.6208 757.034 26.126C755.121 27.2894 753.255 28.5314 751.472 30.2175C751.989 30.2906 752.542 30.5177 753.019 30.4103C755.031 29.9554 757.104 29.8502 759.007 28.7736C759.957 28.2365 761.365 28.2959 762.536 28.4033C767.449 28.8559 772.341 29.5538 777.259 29.9112C780.199 30.1253 783.16 29.9112 786.049 30.7539C786.766 30.9626 787.597 30.7851 788.356 30.7851C788.751 29.0038 790.259 27.9287 792.103 28.7835C795.189 30.2144 798.278 29.899 801.468 29.8632C804.965 29.8236 808.156 30.8415 810.204 34.0507C810.38 34.3265 810.689 34.5581 810.986 34.7105C813.288 35.8869 815.602 37.039 818.417 38.4516L817.119 35.045C818.18 35.1829 818.923 35.1601 819.58 35.3864C822.117 36.258 824.592 36.5361 827.214 35.5578C828.266 35.1654 829.561 35.3826 830.745 35.394C832.016 35.407 833.286 35.5045 834.856 35.5791L833.809 33.8297C835.046 31.9851 836.698 31.7756 838.646 31.9966C842.259 32.4065 845.886 32.7105 849.515 32.9383C855.491 33.3132 861.324 34.4858 867.122 35.8946C867.373 35.9555 867.627 36.0462 867.852 36.1719C871.468 38.1986 875.396 37.9792 879.303 37.6836C883.304 37.3803 887.192 37.6912 891.131 38.5895C893.197 39.0603 895.049 39.4939 896.801 40.7724C897.775 41.4833 899.243 41.548 900.507 41.82C901.18 41.9648 901.891 41.9777 902.585 41.9709C909.536 41.8977 916.481 41.9138 923.575 43.5527L923.448 41.3095C924.012 41.1838 924.568 40.972 925.131 40.9499C928.615 40.8105 932.053 41.1412 935.5 41.7157C938.914 42.2848 942.398 42.4128 945.828 42.9043C948.486 43.2852 951.098 43.9771 953.747 44.438C955.71 44.7801 957.709 44.9081 959.672 45.2456C964.305 46.0419 968.819 47.3059 973.078 49.3006C976.694 50.9943 980.599 51.2427 984.427 51.8896C988.168 52.522 991.57 53.8782 994.79 56.2082L993.795 57.6269L995.333 61.3931C993.28 62.0392 991.477 62.062 989.746 61.5302C986.103 60.4109 982.492 59.182 978.893 57.9263C976.325 57.0295 974.451 57.4935 972.729 59.5903C972.31 60.1001 971.833 60.561 971.265 61.1698C974.2 62.5733 976.763 64.5634 980.068 65.003C981.475 65.1905 982.672 65.8838 983.302 67.3932C981.634 69.6599 979.187 69.1563 977.109 68.7677C975.569 68.4797 974.698 68.8012 973.659 69.7437C972.195 71.0718 970.76 72.1819 970.146 74.3526C969.417 76.9271 967.393 77.5329 964.707 76.7542C963.711 76.4654 962.702 76.0768 961.687 76.0364C960.84 76.0029 959.887 75.9123 959.388 77.1946C958.741 78.8571 958.119 78.8662 956.705 77.6997C956.244 77.3187 955.79 76.9287 955.536 76.7146L951.237 78.1394C951.64 79.5969 951.905 81.312 952.625 82.8077C952.945 83.4736 954.161 83.9879 955.013 84.058C956.716 84.1982 957.996 84.6972 958.836 86.2812C959.141 86.8572 959.906 87.1719 960.325 87.7114C960.901 88.4512 961.874 89.3861 961.751 90.071C961.42 91.9103 962.62 92.5427 963.681 93.3938C963.952 93.6117 964.234 93.8174 964.499 94.0422C966.703 95.9081 966.421 97.5326 963.725 98.5482C963.579 98.6031 963.471 98.7608 963.144 99.048L965.994 102.579L963.023 103.918C963.333 104.674 963.625 105.45 963.967 106.204C964.594 107.586 964.955 108.995 964.486 110.5C964.057 111.879 963.357 112.141 962.163 111.285C961.392 110.733 960.726 110.036 960 109.419C959.206 108.745 958.435 108.034 957.587 107.433C955.454 105.921 953.509 104.259 951.874 102.169C950.657 100.612 949.195 99.1501 947.577 98.0255C945.006 96.238 943.059 93.9332 941.418 91.3739C940.463 89.8851 939.84 88.1564 939.272 86.4664C939.135 86.0595 939.691 85.2526 940.131 84.8542C941.077 83.9978 942.155 83.2884 943.323 82.4099C941.386 80.3192 942.727 78.1774 942.776 76.1081C942.785 75.7279 943.391 75.3339 943.764 74.9949C944.92 73.9457 944.97 73.5548 943.932 72.5156C943.384 71.9678 942.774 71.4824 942.096 70.8843C941.02 71.4413 939.987 71.9518 939.493 73.3819C939.018 74.7564 938.128 74.9827 936.767 74.4135C935.206 73.7613 933.341 73.5229 932.685 71.5563C930.145 71.5967 927.695 70.4493 925.333 71.615C924.978 72.9339 924.546 74.153 924.34 75.4094C924.139 76.6338 924.621 77.59 925.932 77.9946C926.943 78.307 928.008 78.6361 927.543 80.3482C925.304 80.7184 922.972 81.1771 920.619 81.4651C919.343 81.6213 918.246 81.0705 917.019 80.5188C914.724 79.4879 912.353 78.566 909.424 79.5969C906.884 80.4906 903.851 80.2971 901.07 80.1013C898.595 79.9268 894.809 79.8735 892.411 80.7062L889.451 87.2611C889.309 87.5773 889.118 87.8836 889.044 88.2158C888.747 89.5575 888.619 90.9534 888.178 92.2425C887.737 93.5332 886.996 94.7218 886.308 96.1108C887.649 96.2754 888.822 96.4315 889.998 96.5596C891.127 96.683 891.971 97.166 892.372 98.2876C892.845 99.6111 893.748 100.147 895.185 100.019C895.827 99.9608 896.505 100.308 897.326 100.51L897.637 98.8217C901.818 98.6533 906.972 100.519 910.236 103.62L909.334 99.061C910.475 98.7051 911.018 99.3749 911.62 99.9936C913.294 101.712 914.406 104.04 916.896 104.879C916.971 104.904 917.035 104.985 917.089 105.052C919.052 107.462 921.115 109.8 922.942 112.309C924.188 114.02 925.356 115.64 927.457 116.431C928.619 116.869 929.786 117.579 929.744 119.358L927.481 119.511C927.564 121.936 928.901 123.601 930.416 125.121C931.878 126.588 933.456 127.939 935.164 129.507C934.454 129.939 933.812 130.153 933.431 130.593C932.218 131.996 931.148 132.111 930.094 130.617C928.793 128.774 927.664 126.809 926.46 124.898C924.952 122.502 923.486 120.08 921.924 117.721C920.773 115.983 919.601 114.238 918.245 112.663C916.852 111.044 915.224 109.626 913.636 108.059C912.61 109.294 913.418 110.19 913.902 110.939C915.079 112.76 916.287 114.594 917.726 116.203C919.707 118.421 919.594 120.916 919.208 123.537C918.92 125.5 918.654 127.468 918.35 129.428C918.192 130.451 918.035 131.48 917.768 132.477C917.077 135.068 916.238 137.622 915.622 140.23C914.907 143.257 913.818 144.683 911.248 145.038C910.284 145.171 909.213 144.887 908.255 144.59C907.459 144.344 906.754 143.801 905.97 143.368C903.734 144.974 902.728 147.042 903.438 149.491C904.05 151.603 903.379 153.016 901.968 154.365C899.133 157.078 899.326 157.825 902.694 160.184C907.199 163.337 910.641 167.415 912.487 172.686C913.304 175.016 913.041 175.461 910.676 176.301C909.373 176.763 908.099 177.311 906.791 177.757C905.994 178.028 905.156 178.18 904.168 178.428L900.058 168.27C900.726 165.904 899.595 164.514 896.206 164.355C893.282 164.217 892.385 163.352 892.3 160.591C892.232 158.343 889.917 156.56 887.217 156.774C885.543 156.907 884.004 157.382 882.817 158.747C882.105 159.564 881.396 160.574 879.872 160.361C879.24 158.815 878.126 157.468 878.774 155.395C879.242 153.898 878.163 153.279 875.364 153.141C874.732 154.969 872.606 155.902 872.334 158.185C872.261 158.799 870.94 159.337 870.114 159.759C869.613 160.015 868.965 159.982 868.275 160.097C868.743 161.577 869.683 162.069 871.037 162.157C872.895 162.279 874.659 162.488 875.007 164.993C875.103 165.685 876.26 166.229 877.444 167.312C877.759 166.624 877.879 166.174 878.138 165.83C879.29 164.296 879.748 164.096 881.379 164.806C882.836 165.439 884.27 165.941 885.891 165.817C886.868 165.741 887.775 166.213 887.669 167.219C887.612 167.761 886.721 168.575 886.138 168.637C884.29 168.837 883.098 169.669 882.311 171.332C882.033 171.92 881.405 172.362 880.884 172.81C879.946 173.615 879.475 174.555 879.821 175.801C879.948 175.913 880.068 176.114 880.201 176.123C884.756 176.398 885.978 180.374 888.059 183.316C888.955 184.583 889.63 185.925 890.966 186.882C891.712 187.419 892.338 188.105 892.804 188.897C893.27 189.688 893.567 190.568 893.676 191.481C893.788 192.418 893.032 193.459 892.605 194.629C892.794 194.665 893.158 194.716 893.513 194.803C895.043 195.182 895.705 196.019 895.705 197.565C895.705 201.598 894.308 205.311 893.047 209.052C892.826 209.708 892.318 210.306 892.242 210.965C891.667 215.975 888.482 219.242 885.045 222.508C883.407 224.065 881.549 224.932 879.622 225.847C878.551 226.355 877.499 226.716 876.67 227.801C875.713 229.055 874.34 228.462 873.146 227.471C872.089 229.053 870.84 230.129 868.691 230.038C867.277 229.978 865.809 230.563 864.418 231.021C863.975 231.168 863.663 231.813 863.376 232.282C863.266 232.462 863.396 232.787 863.407 233.047C863.449 234.046 863.905 235.28 862.365 235.546C861.01 235.781 860.908 234.549 860.574 233.718C859.064 229.977 855.636 229.523 852.684 232.301C851.068 233.821 849.757 235.35 848.908 237.373C847.911 239.752 848.291 241.569 850.061 243.533C853.422 247.264 856.689 251.08 859.985 254.87C860.325 255.262 860.723 255.671 860.883 256.143C862.343 260.456 864.508 264.664 863.76 269.393C863.548 270.733 862.649 272.213 861.618 273.119C859.965 274.572 857.939 275.6 855.637 277.088C854.759 279.481 851.342 283.036 848.767 283.609C848.478 281.849 848.173 280.099 847.905 278.344C847.638 276.595 847.208 276.327 845.373 276.8C844.576 276.135 843.785 275.504 843.03 274.833C842.721 274.559 842.332 274.237 842.245 273.873C841.575 271.057 839.295 269.431 837.514 267.454C837.109 267.004 836.323 266.823 835.677 266.683C834.929 266.522 834.142 266.543 833.248 266.476C833.052 265.725 832.978 265.018 832.673 264.43C832.485 264.068 831.907 263.642 831.574 263.693C831.213 263.749 830.739 264.287 830.659 264.685C830.505 265.439 830.563 266.244 830.594 267.026C830.665 268.875 830.444 270.641 829.672 272.368C828.725 274.485 828.638 276.739 829.049 279.208C831.034 279.361 831.709 280.721 832.139 282.546C832.55 284.292 833.347 285.954 834.057 287.618C834.281 288.142 834.741 288.92 835.139 288.949C836.715 289.066 837.208 290.367 838.128 291.238C839.514 292.548 841.187 293.487 842.429 295.037C844.067 297.083 845.268 299.13 845.069 301.868C844.916 303.988 845.541 305.994 846.454 307.91C846.865 308.772 847.207 309.666 847.573 310.549C847.931 311.415 847.681 312.194 846.871 312.517C846.224 312.776 845.283 312.952 844.731 312.667C843.059 311.801 841.513 310.69 839.915 309.678C838.18 308.58 836.629 307.347 836.494 305.062C836.489 304.976 836.489 304.864 836.438 304.81C833.72 301.898 834.555 297.661 832.601 294.485C831.012 291.91 829.341 289.386 827.591 286.917C827.266 286.458 826.434 286.358 825.567 285.973C824.719 284.199 824.864 282.075 825.166 279.897C825.327 278.735 825.211 277.532 825.183 276.348C825.171 275.832 824.9 275.273 825.029 274.812C826.344 270.077 825.042 265.771 823.071 261.512C822.133 259.483 821.539 257.296 820.637 255.248C819.81 253.371 818.779 251.583 817.603 249.3C817.584 251.774 816.407 252.648 814.491 253.017C813.64 253.181 812.919 254.015 812.19 254.508L808.056 253.146C808.022 252.642 807.837 252.023 807.966 251.48C808.537 249.081 808.14 246.822 807.134 244.636C806.335 242.9 805.565 241.144 804.63 239.482C804.246 238.798 803.41 238.385 802.875 237.767C801.308 235.954 799.66 234.189 798.289 232.233C797.161 230.624 796.384 228.769 795.408 226.941C794.997 227.033 794.594 227.004 794.376 227.191C792.623 228.691 790.398 229.108 788.305 229.242C785.42 229.427 782.966 230.422 780.477 231.949C781.669 235.019 779.669 236.683 777.388 237.9C775.546 238.882 774.375 240.287 773.066 241.833C771.143 244.103 769.895 247.111 766.86 248.342C766.706 248.405 766.499 248.523 766.458 248.658C765.402 252.107 761.648 252.478 759.381 255.026C759.614 256.63 759.725 258.545 760.197 260.367C760.84 262.851 760.549 265.21 759.697 267.527C758.956 269.541 758.559 271.489 759.351 273.606C759.758 274.693 759.766 275.864 758.324 276.417C758.027 276.532 757.604 276.833 757.584 277.076C757.336 280.141 754.365 281.116 752.884 283.234C751.537 285.159 750.172 285.119 748.632 283.344C748.004 282.626 747.481 281.823 747.076 280.958C745.129 276.705 743.218 272.435 741.343 268.15C740.787 266.88 740.449 265.514 739.89 264.245C739.02 262.273 738.053 260.343 737.11 258.404C736.808 257.782 736.361 257.217 736.137 256.571C734.332 251.364 731.621 246.477 731.246 240.769C731.052 237.813 729.959 234.923 729.394 231.981C729.196 230.953 729.362 229.856 728.973 228.779C728.85 228.991 728.594 229.222 728.623 229.41C728.808 230.57 728.945 231.932 727.904 232.53C726.594 233.283 725.023 233.638 723.52 233.968C723.1 234.06 722.343 233.579 722.058 233.15C720.977 231.526 719.603 230.294 717.952 229.26C717.24 228.815 716.818 227.906 716.076 226.969L718.568 226.054C713.539 223.623 709.501 220.136 706.338 215.077C704.059 215.273 701.521 215.266 699.081 215.749C694.219 216.715 689.413 216.641 684.59 215.659C681.781 215.086 678.984 214.454 676.164 213.945C674.802 213.699 673.95 213.064 673.621 211.708C673.52 211.291 673.293 210.903 673.114 210.507C672.138 208.356 671.958 208.425 669.625 209.351C667.411 210.23 665.289 210.891 662.668 209.673C660.232 208.542 657.711 207.673 655.598 205.949C655.331 205.731 655.036 205.435 654.728 205.399C652.568 205.143 651.876 203.495 651.515 201.783C651.111 199.87 649.885 198.551 648.759 197.133C647.799 195.924 646.358 195.719 644.983 195.718C642.92 195.715 641.286 198.032 642.094 199.978C643.173 202.575 644.369 205.128 646.852 206.854C648.243 207.821 649.358 209.184 650.657 210.427L651.483 209.748L651.959 211.357C654.661 211.827 655.625 214.33 654.462 218.385C654.881 218.69 655.343 219.314 655.822 219.327C658.152 219.385 660.512 219.474 662.814 219.18C665.161 218.88 665.894 216.557 667.14 214.941C667.609 214.331 667.808 213.52 668.24 212.873C668.684 212.209 669.261 211.636 670.146 210.589C670.807 214.523 672.425 217.314 674.441 219.948C675.184 220.919 675.957 221.368 677.063 221.146C678.763 220.805 679.884 221.48 680.75 222.884C681.251 223.695 681.777 224.54 682.472 225.172C684.248 226.789 684.337 228.548 683.213 230.522C682.097 232.483 681.654 234.871 679.22 235.982C678.711 236.215 678.606 237.691 678.601 238.596C678.586 241.05 678.663 241.092 676.39 242.022C675.445 242.408 674.83 242.928 674.405 243.893C674.123 244.532 673.474 245.193 672.831 245.454C670.279 246.491 670.256 246.433 669.296 248.22L659.538 251.838C659.404 252.2 659.305 252.357 659.291 252.523C659.007 255.781 658.344 256.633 655.166 257.566C654.088 257.882 652.964 258.048 651.855 258.255C650.388 258.53 648.996 258.867 648.091 260.259C647.463 261.225 646.38 261.406 645.313 261.393C644.215 261.38 643.345 261.695 642.483 262.444C641.729 263.1 640.737 263.573 639.772 263.873C638.002 264.423 636.147 264.433 634.649 265.984C633.512 267.163 629.643 266.762 628.467 265.696C628.06 265.326 627.632 264.592 627.722 264.122C628.306 261.078 626.366 258.646 625.868 255.879C625.717 255.044 625.452 254.196 625.493 253.366C625.622 250.673 624.793 248.36 622.734 246.656C621.389 245.544 620.825 244.165 620.127 242.632C619.189 240.572 617.816 238.314 615.987 237.143C612.798 235.1 611.795 232.222 611.257 228.899C610.649 225.139 608.931 222.069 605.862 219.764C605.398 219.416 604.901 218.925 604.736 218.401C603.77 215.334 601.709 212.949 599.936 210.377C599.004 209.025 598.269 207.538 597.346 206.18C596.692 205.218 595.871 204.369 594.77 203.043L593.809 205.058L590.549 203.354C591.442 205.611 592.128 207.572 592.982 209.456C594.807 213.481 596.742 217.456 598.584 221.474C599.193 222.801 599.801 223.94 601.107 224.885C604.118 227.063 604.784 230.658 605.725 233.982C606.17 235.555 606.422 237.239 606.411 238.869C606.395 241.263 607.767 242.97 609.488 243.862C612.196 245.265 612.919 247.744 613.088 250.085C613.396 254.368 615.78 256.444 619.43 257.572C620.536 257.914 621.12 258.517 621.765 259.403C623.032 261.145 624.53 262.718 625.928 264.365C626.649 265.216 627.35 266.085 628.077 266.931C628.742 267.706 629.022 268.513 628.715 269.565C628.332 270.879 628.822 271.922 629.987 272.676C630.493 273.004 630.94 273.431 631.385 273.844C632.637 275.003 634.04 275.197 635.433 274.257C636.464 273.561 637.356 273.416 638.561 273.856C639.8 274.308 641.053 274.273 641.979 272.876C642.333 272.341 643.351 271.844 643.963 271.948C647.415 272.531 650.311 271.001 653.281 269.731C653.737 269.536 654.094 269.108 654.571 268.729L656.309 269.562C656.428 269.871 656.546 270.03 656.54 270.185C656.457 272.264 656.352 274.342 656.261 276.421C656.079 280.56 653.616 283.867 652.148 287.528C650.827 290.827 649.267 294.041 647.656 297.212C645.233 301.984 642.124 306.239 637.711 309.409C637.358 309.662 637.041 310.017 636.648 310.155C633.084 311.408 630.926 314.295 628.74 317.076C626.876 319.448 624.71 321.641 623.666 324.595C623.526 324.99 622.886 325.214 622.469 325.504C620.441 326.915 618.823 328.559 617.923 331.008C617.032 333.43 615.586 335.642 614.49 337.995C613.956 339.14 613.564 340.375 613.287 341.61C612.965 343.05 614.055 343.783 615.033 344.545C615.758 345.111 615.924 345.89 615.314 346.599C614.402 347.659 614.514 348.754 614.83 349.986C614.993 350.62 614.827 351.342 614.797 352.023C614.699 354.229 614.84 356.274 616.669 357.964C618.153 359.336 618.724 361.036 618.39 363.295C618.031 365.718 618.52 368.266 618.618 370.759C618.713 373.184 619.116 375.656 618.782 378.023C618.308 381.385 616.437 384.192 613.697 386.22C611.753 387.658 609.663 388.96 607.482 389.993C605.988 390.701 604.866 391.638 603.965 392.937C603.167 394.086 602.167 394.959 601.023 395.795C599.651 396.799 598.555 398.204 597.439 399.519C597.18 399.824 597.199 400.499 597.302 400.957C597.703 402.723 598.027 404.535 598.677 406.214C600.255 410.287 599.208 414.074 597.519 417.738C596.822 419.253 595.334 420.191 593.641 420.595C592.797 420.796 591.928 420.895 591.091 421.119C589.563 421.527 588.688 422.519 589.151 423.989C589.936 426.478 588.814 428.563 588.229 430.775C587.648 432.977 586.661 434.808 584.781 436.378C583.108 437.774 582.106 439.963 580.77 441.774C579.647 443.298 578.524 444.827 577.301 446.27C576.122 447.661 574.814 448.942 573.565 450.275C571.458 452.523 569.14 454.396 565.996 455.038C564.831 455.276 563.718 455.797 562.598 456.233C559.673 457.373 556.614 457.094 553.583 457.123C552.206 457.137 550.91 457.561 549.596 457.839C547.47 458.289 545.294 458.873 543.167 459.044C541.538 459.175 539.793 457.945 538.115 457.281C537.917 457.202 537.66 456.853 537.691 456.674C537.97 455.055 537.145 453.887 536.31 452.636C536.051 452.248 536.245 451.095 536.616 450.83C538.192 449.701 537.83 448.292 537.064 447.153C535.227 444.418 534.211 441.475 533.689 438.237C533.42 436.569 532.476 435.141 530.89 434.035C528.354 432.266 527.382 429.37 526.575 426.502C526.295 425.505 526.218 424.451 526.028 423.427C525.602 421.136 524.978 418.863 524.786 416.553C524.624 414.587 524.873 412.572 525.102 410.597C525.21 409.662 525.145 408.925 524.511 408.206C521.458 404.753 519.627 400.64 518.085 396.356C517.678 395.228 517.025 394.152 516.307 393.185C515.307 391.841 515.085 390.393 515.087 388.776C515.09 385.352 515.764 382.073 516.833 378.84C517.348 377.281 517.877 375.69 518.071 374.073C518.306 372.113 519.266 370.657 520.59 369.361C523.219 366.786 523.521 363.803 522.232 360.514C521.725 359.222 521.141 357.953 520.734 356.63C520.517 355.923 520.328 355.004 520.596 354.385C521.829 351.539 520.542 349.034 519.382 346.727C518.139 344.254 516.97 341.943 516.598 339.085C516.364 337.285 514.795 335.586 513.612 333.999C511.799 331.566 509.703 329.341 507.924 326.886C506.919 325.501 506.244 323.858 505.562 322.271C505.362 321.805 505.445 320.98 505.745 320.577C507.239 318.572 507.424 316.334 507.357 313.948C507.319 312.572 507.499 311.199 507.892 309.88C508.467 307.991 508.708 306.119 508.211 304.233C507.943 303.216 507.799 301.884 506.211 301.887C506.056 301.887 505.808 301.786 505.759 301.667C504.654 299.021 502.541 300.058 500.653 300.242C499.356 300.369 498.058 300.508 496.758 300.563C494.553 300.657 493.533 299.93 492.85 297.886C491.315 293.295 488.939 291.856 484.238 292.376C481.644 292.663 479.285 293.365 476.816 294.291C473.654 295.476 470.714 297.143 467.517 298.195C466.87 298.409 465.972 298.907 465.581 298.659C464.178 297.769 462.531 298.107 461.161 297.584C457.946 296.355 455.035 297.324 452.061 298.252C451.4 298.457 450.714 298.665 450.13 299.021C446.433 301.272 443.36 299.984 440.552 297.347C438.655 295.565 436.864 293.683 434.438 292.553C433.885 292.294 433.418 291.589 433.174 290.984C432.57 289.493 431.543 288.482 430.037 288.096C427.298 287.395 426.787 285.043 425.95 282.895C425.361 281.385 425.024 279.665 424.066 278.435C422.166 275.999 420.026 273.718 417.758 271.616C416.718 270.651 415.294 270.154 414.483 268.797C413.404 266.989 412.685 265.28 413.955 263.26C414.686 262.098 413.873 261.074 413.329 260.132C412.905 259.398 412.234 258.809 411.703 258.19C412.697 256.098 413.663 254.095 414.605 252.081C416.021 249.051 416.401 245.804 416.486 242.516C416.501 241.957 416.07 241.398 415.916 240.82C415.764 240.253 415.46 239.566 415.645 239.097C416.392 237.204 415.787 235.517 415.14 233.811L413.806 233.603C413.768 230.919 413.787 228.347 415.736 226.217C416.118 225.8 416.267 225.14 416.44 224.566C417.15 222.206 418.539 220.326 420.687 219.181C421.995 218.483 422.363 217.566 422.267 216.235C422.217 215.547 422.185 214.843 422.282 214.165C422.569 212.161 423.32 210.502 425.526 209.906C427.176 209.46 428.196 208.593 428.11 206.587C428.033 204.81 429.25 203.81 430.985 203.416C435.557 202.379 438.542 199.423 440.499 195.321C440.765 194.762 440.665 194.011 440.669 193.348C440.672 192.661 440.337 191.85 440.598 191.308C441.843 188.716 442.49 185.838 445.049 183.907C446.91 182.502 448.618 180.925 450.737 179.873C451.219 179.633 451.586 179.052 451.873 178.552C452.821 176.9 453.672 175.193 454.626 173.543C455.721 171.648 456.632 171.485 457.951 173.159C458.943 174.42 460.004 174.736 461.544 174.631C463.379 174.508 465.193 174.049 467.134 174.826C468.038 175.188 469.521 174.272 470.678 173.784C471.611 173.39 472.454 172.778 473.328 172.249C473.974 171.859 474.712 171.549 475.222 171.024C476.573 169.629 478.178 169.072 480.088 168.896C482.924 168.634 485.76 168.249 488.552 167.694C490.223 167.362 491.751 167.204 493.372 167.902C493.987 168.167 494.93 168.167 495.529 167.879C497.155 167.1 498.746 166.991 500.538 167.117C502.639 167.264 504.824 167.658 506.903 166.471C507.58 166.083 508.737 166.372 509.629 166.566C510.584 166.772 511.486 167.231 512.849 167.744C513.653 168.888 512.563 170.062 511.704 171.327C513.668 173.479 512.99 175.425 511.443 177.425C509.866 179.464 509.927 179.535 512.261 181.127C513.405 181.907 514.541 182.734 515.783 183.327C517.257 184.03 518.777 184.441 520.541 184.168C521.939 183.952 523.471 184.288 524.892 184.606C526.592 184.987 527.852 185.966 528.248 187.836C528.579 189.403 529.653 190.165 531.244 190.183C533.865 190.214 536.175 191.02 538.16 192.784C538.662 193.231 539.333 193.604 539.984 193.746C542.316 194.253 543.857 192.443 543.087 190.169C542.922 189.68 542.68 189.217 542.481 188.76C543.673 186.131 545.49 184.768 548.398 184.264C551.157 183.785 553.317 184.212 555.306 186.087C555.65 186.411 556.209 186.527 556.688 186.679C557.262 186.862 557.91 186.875 558.432 187.144C561.714 188.838 565.36 189.244 568.858 190.17C570.528 190.613 572.234 190.967 573.847 191.565C574.954 191.975 575.859 191.94 576.779 191.264C576.99 191.11 577.217 190.977 577.422 190.818C580.023 188.805 582.639 188.889 585.381 190.598C587.288 191.787 589.413 191.416 591.452 190.979C592.693 190.713 593.17 189.595 593.478 188.485C594.377 185.238 595.164 181.974 596.279 178.769C597.042 176.578 596.614 173.971 596.707 171.549C596.73 170.957 596.711 170.365 596.711 169.883C595.423 169.8 594.322 169.57 593.268 169.705C592.206 169.84 591.056 170.137 590.178 170.717C587.741 172.328 586.601 172.35 584.152 170.551C583.387 169.99 582.558 169.428 581.669 169.149C580.479 168.775 579.255 168.298 578.237 169.855C577.535 170.927 576.261 171.172 574.999 170.345C574.144 169.786 573.248 169.264 572.309 168.873C571.707 168.622 570.993 168.568 570.328 168.56C569.485 168.549 568.64 168.674 567.742 168.744C567.339 167.685 567.08 166.764 566.644 165.936C566.304 165.29 565.846 164.616 565.263 164.206C563.5 162.967 563.466 163.014 565.12 161.008C564.462 159.717 563.555 158.427 563.163 156.995C562.913 156.082 563.426 154.961 563.632 153.723C562.582 153.459 561.217 153.051 559.823 152.784C558.427 152.517 556.987 151.938 555.927 153.724C555.619 154.242 554.401 154.22 553.333 154.52C553.647 155.272 553.922 155.862 554.143 156.473C554.341 157.025 554.488 157.596 554.642 158.163C554.806 158.772 554.907 159.403 555.121 159.993C555.266 160.395 555.714 160.729 555.75 161.119C555.832 162.016 555.998 163.062 555.617 163.776C555.435 164.115 554.08 163.893 553.269 163.805C552.904 163.766 552.57 163.437 551.901 163.056C553.876 165.91 554.23 167.757 553.323 169.664C552.6 169.429 551.888 169.05 551.147 168.983C548.469 168.743 548.55 168.755 547.746 166.22C547.311 164.848 546.635 163.523 545.882 162.29C544.803 160.524 543.548 158.866 542.382 157.152C542.047 156.658 541.861 156.015 541.432 155.642C540.466 154.801 540.269 153.778 540.351 152.594C540.593 149.1 538.997 146.628 536.068 144.872C535.334 144.432 534.729 143.78 534.002 143.329C533.003 142.711 531.917 142.233 530.916 141.617C529.679 140.855 528.147 140.256 527.367 139.146C526.325 137.663 524.821 136.803 523.685 135.538C521.892 133.539 520.065 133.216 517.728 134.823C517.687 135.146 517.748 135.709 517.534 136.137C516.954 137.299 517.352 138.123 518.237 138.873C519.951 140.324 521.497 141.8 522.495 143.978C523.313 145.765 525.303 146.785 527.273 147.295C528.318 147.566 529.184 147.64 529.644 148.909C529.868 149.529 530.921 149.976 531.689 150.249C533.696 150.963 535.462 152.034 536.96 153.518C537.971 154.521 537.869 154.918 536.65 156.07L532.942 154.447C532.048 155.361 531.581 155.97 532.138 157.114C533.247 159.388 532.096 162.755 529.718 163.524C527.763 164.156 526.786 164.901 526.97 167.11C527.087 168.513 525.942 169.063 524.636 168.423C522.53 167.397 520.456 166.309 518.415 165.161C517.987 164.918 517.435 164.021 517.554 163.85C517.902 163.348 518.522 162.841 519.102 162.746C519.834 162.627 520.646 163.062 521.4 162.994C523.627 162.792 525.842 162.46 527.85 162.205C529.665 160.192 528.811 158.279 528.258 156.388C528.191 156.156 528.034 155.858 527.837 155.77C525.293 154.625 523.518 152.457 521.288 150.899C521.013 150.706 520.683 150.571 520.36 150.471C515.824 149.058 512.627 146.084 510.245 142.049C509.647 141.036 508.697 140.167 507.751 139.434C506.125 138.175 505.765 138.259 504.171 139.615C504.105 139.671 504.061 139.767 503.987 139.798C501.894 140.669 499.905 141.685 498.042 143.024C497.496 143.416 496.245 142.798 495.311 142.687C493.523 142.475 491.716 142.051 489.946 142.167C488.16 142.285 487.434 143.347 487.295 144.808C487.174 146.076 487.343 147.712 486.629 148.507C485.4 149.874 483.713 151.153 481.982 151.653C480.11 152.193 479.018 153.089 478.116 154.693C477.356 156.043 476.279 157.215 475.266 158.569L476.151 161.075C475.111 162.4 473.459 163.465 473.399 165.49C473.392 165.686 473.091 165.899 472.889 166.058C472.686 166.217 472.404 166.28 472.215 166.451C469.463 168.949 466.357 170.176 462.527 169.872C461.023 169.751 459.392 170.535 457.9 171.114C456.44 171.68 455.504 171.104 454.816 169.997C453.448 167.795 451.634 167.032 449.072 167.613C448.049 167.844 446.899 167.508 445.617 167.417C445.617 165.985 445.719 164.851 445.583 163.745C445.484 162.942 445.263 162.003 444.751 161.436C443.853 160.44 444.078 159.603 444.567 158.592C445.319 157.036 445.999 155.445 446.705 153.866C446.846 153.549 447.076 153.224 447.079 152.901C447.107 149.744 447.095 146.587 447.095 143.019C448.09 142.316 449.46 141.316 450.872 140.382C451.112 140.222 451.598 140.21 451.858 140.346C453.433 141.16 455.09 140.626 456.705 140.732C460.854 141.004 464.998 141.36 469.146 141.643C471.311 141.791 471.703 141.459 472.163 139.399C472.461 138.049 472.77 136.701 473.091 135.357C473.448 133.873 473.454 132.438 472.69 131.056C470.88 127.78 468.725 124.887 464.66 124.369C462.598 124.106 462.455 122.498 461.842 120.735C463.529 120.38 465.094 119.832 466.674 119.78C468.244 119.728 469.831 120.174 471.72 120.447L471.917 117.016C472.893 116.379 473.84 116.012 474.848 117.117C475.098 117.392 475.613 117.489 476.024 117.545C477.74 117.781 481.9 115.16 482.666 113.558C483.006 112.845 483.612 112.173 484.261 111.712C485.308 110.968 486.471 110.374 487.621 109.787C489.781 108.684 491.591 107.319 492.241 104.791C492.392 104.205 492.809 103.732 493.726 103.633C494.771 103.52 495.715 102.671 496.767 102.36C498.293 101.909 499.948 102.025 501.231 100.675C501.634 100.252 502.859 100.609 503.975 100.609C505.316 99.5973 505.443 98.2335 504.317 96.5718C503.697 95.6575 503.336 94.5679 502.864 93.569C503.136 92.59 503.33 91.5682 503.706 90.6189C504.173 89.4402 504.535 88.199 506.138 87.8569C506.897 87.6954 507.457 86.749 508.221 86.4206C508.957 86.1045 509.998 85.786 510.619 86.0778C511.582 86.5296 511.091 87.5514 510.807 88.388C510.537 89.1872 510.386 90.0268 510.154 90.8406C509.943 91.5751 509.809 92.3637 509.439 93.0136C508.287 95.0342 508.759 96.9535 510.769 97.9843C511.52 98.3699 512.257 98.792 513.041 99.0952C513.271 99.1844 513.637 98.9246 514.14 98.7592C513.19 97.8967 511.395 97.6285 512.686 95.8411C512.942 95.4868 512.312 94.4917 512.066 93.7169C512.491 93.0647 512.737 92.3355 513.945 92.3995C514.782 92.4437 515.74 91.8844 516.483 91.364C516.878 91.0874 517.077 90.3232 517.088 89.7739C517.097 89.3038 516.78 88.7765 516.487 88.3605C514.607 85.6938 512.695 83.0499 510.606 80.1379C509.057 81.1162 507.297 82.1554 505.616 83.309C502.842 85.2107 499.543 85.2687 497.445 83.3456C497.129 83.0553 496.673 82.7132 496.633 82.3566C496.223 78.6666 494.152 75.2943 494.677 71.4024C494.849 70.1254 495.16 69.2203 496.386 68.8218C498.796 68.0378 500.856 66.6335 502.995 65.3345C504.048 64.696 505.404 64.5642 506.616 64.1817C507.264 63.9767 508.001 63.8624 508.52 63.4708C509.943 62.3973 511.282 61.2102 512.635 60.046C513.349 59.4311 514.019 58.7659 514.716 58.1313C514.972 57.8981 515.496 57.6688 515.479 57.4707C515.307 55.303 517.625 54.9015 518.329 53.3715C518.467 53.0713 518.724 52.695 519.003 52.6111C521.73 51.7951 522.786 49.3296 524.34 47.3425C524.697 46.8861 525.245 46.3375 525.755 46.2811C528.499 45.9771 529.628 43.5336 531.433 42.0418C532.783 40.9271 533.286 40.3449 534.709 41.0802C535.621 41.5511 536.272 41.5541 537.119 41.1503C537.593 40.9282 538.111 40.8194 538.634 40.8326C540.032 40.8837 541.072 40.396 542.091 39.3872C542.758 38.7274 543.891 38.2832 544.849 38.2169C550.422 37.8298 555.99 37.9502 561.52 38.8599C563.689 39.2165 563.903 39.4344 564.175 41.2806C569.411 42.5019 574.508 43.8818 579.684 44.8342C583.427 45.523 586.773 47.0826 590.167 48.6034C590.856 48.9128 591.556 49.3852 592.024 49.965C593.16 51.37 592.862 52.6264 591.363 53.6717C589.52 54.9578 587.505 55.7038 585.249 55.5582C582.166 55.3594 579.089 55.0691 576.042 54.8215C576.455 55.2885 577.712 55.5476 577.268 56.9015C577.155 57.2459 578.134 57.8509 578.399 58.433C579.441 60.721 581.547 61.0974 584.273 61.6315C583.331 60.9694 582.749 60.7088 582.392 60.2669C582.055 59.8494 581.659 59.1073 581.82 58.7477C582.054 58.2273 582.732 57.6688 583.286 57.5895C584.001 57.4874 584.804 57.7777 585.531 58.0147C587.234 58.5694 588.916 59.1934 590.914 59.8974C589.341 57.1431 589.498 56.8642 592.268 55.8958C593.13 55.5948 593.865 54.9472 594.696 54.5365C595.526 54.1266 596.386 53.7517 597.269 53.4782C598.073 53.2291 598.927 53.1369 600.127 52.9037C598.991 51.7281 598.404 50.7696 598.694 49.3044C598.851 48.5089 598.025 47.52 597.646 46.6247C601.329 45.3957 604.31 45.7531 606.605 47.9939L603.434 50.0976C604.984 50.6766 606.301 51.248 607.667 51.6519C608.606 51.93 609.524 51.6207 609.596 50.5037C609.693 48.9951 610.752 48.6971 611.857 48.4107C614.867 47.632 617.92 47.0704 620.658 45.3988C621.3 45.0106 622.036 44.8068 622.785 44.8096C623.535 44.8124 624.269 45.0218 624.908 45.4148C626.066 46.118 627.201 46.0358 628.419 45.8331C631.062 45.3935 633.699 44.8647 636.361 44.6163C637.67 44.4936 639.029 44.9135 640.708 45.1321C640.374 44.515 640.165 44.1942 640.018 43.8475C639.467 42.5522 639.615 42.1294 640.992 41.8452C643.822 41.2623 646.699 41.0505 649.477 41.9999C652.924 43.1785 656.306 44.5454 659.726 45.8064C660.665 46.1523 661.636 46.4099 662.592 46.7078L662.853 46.0723C661.333 45.3195 659.843 44.499 658.284 43.8414C657.443 43.4864 656.844 43.1039 656.407 42.23C655.775 40.9682 654.875 39.8406 653.886 38.3465C653.973 37.0626 655.334 36.3814 656.551 35.778C656.372 32.1482 656.896 31.5303 660.433 31.0541C660.947 30.9847 661.477 30.9969 661.998 31.0106C665.165 31.0944 667.707 31.8099 667.453 36.4302L669.74 37.1334C670.064 37.8116 670.362 38.5034 670.717 39.1647C671.287 40.2299 672.028 41.2242 672.452 42.3419C672.93 43.5991 673.619 44.5325 674.647 45.4392C676.585 47.1481 677.293 49.5825 674.952 51.4012C674.191 51.9925 673.605 52.8077 672.846 53.6207C674.934 54.3841 676.532 54.2302 678.052 53.1392C679.867 51.8363 680.15 49.8553 678.941 48.0152C678.409 47.2061 678.295 46.1219 677.939 44.9957C675.674 45.3813 674.064 43.8407 673.434 41.8307C672.757 39.647 671.173 38.5346 669.694 37.1791ZM545.509 84.7162C545.025 85.5338 544.56 84.9372 544.421 84.5601C544.276 84.1639 544.309 83.4751 544.567 83.1955C545.843 81.8156 547.036 80.4419 548.987 79.7416C551.843 78.7169 554.599 78.0175 557.589 78.9523C558.161 79.1314 558.797 79.2418 559.387 79.1893C560.017 79.1337 560.696 78.9614 561.229 78.6361C562.038 78.1439 562.74 77.4757 563.802 76.633C562.808 76.23 561.951 75.548 561.171 75.6258C558.416 75.9008 555.576 76.0989 552.977 76.9584C549.662 78.0533 546.684 78.2993 543.562 76.4532C542.445 75.7926 541.87 75.1785 541.75 73.9145C541.664 73.0132 541.462 72.0226 540.988 71.2782C539.635 69.1563 539.815 66.8545 541.712 65.3047C542.514 64.6487 543.399 64.0864 544.281 63.5371C546.486 62.1641 548.209 60.2715 550.189 58.5922C547.745 56.5373 543.764 56.9244 541.124 59.265L541.322 61.8434C538.355 63.5386 535.428 65.4023 532.329 66.9124C530.351 67.877 530.09 69.429 530.096 71.1952C530.102 72.7891 530.422 74.2322 532.197 75.0079C533.101 75.4025 533.848 76.2506 534.532 77.014C534.814 77.3279 534.988 78.1096 534.795 78.4167C533.849 79.92 533.207 81.8316 531.232 82.3002C529.286 82.7619 529.023 83.965 528.898 85.7327C528.736 88.0322 528.282 90.3636 526.97 92.3751C526.539 92.4071 526.194 92.4437 525.849 92.4574C524.458 92.513 523.013 92.3758 522.702 94.3607C522.647 94.7096 521.775 95.1218 521.252 95.1653C520.322 95.2422 519.369 95.0601 518.438 94.987L517.024 92.7766L515.687 97.6247C516.885 97.6247 518.157 97.2979 519.11 97.7093C520.237 98.1962 521.09 99.32 522.142 100.239C524.175 99.5517 526.194 98.779 528.267 98.1924C530.262 97.6278 532.3 97.2026 534.342 96.8384C534.838 96.7501 535.453 97.0731 535.954 97.3261C536.912 97.8107 538.672 97.6827 539.388 96.9985C540.256 96.1695 541.127 95.3428 541.742 94.7576C542.029 92.4848 542.244 90.455 542.556 88.4405C542.74 87.2481 543.412 86.3323 544.623 85.9871C545.329 85.786 545.553 85.3639 545.511 84.7086C547.081 85.6778 548.395 87.1209 550.28 87.5689C551.649 84.1501 551.608 84.0313 549.507 83.4667C547.864 83.981 546.686 84.349 545.509 84.7162ZM594.911 134.136C594.494 135.98 593.893 136.57 592.127 136.284C590.459 136.013 589.159 136.09 587.909 137.469C586.876 138.61 585.604 138.221 585.194 136.737C584.958 135.885 584.585 135.428 583.847 135.012C582.105 134.031 582.131 133.984 583.194 131.977C581.668 131.891 580.228 131.717 579.384 130.22C579.22 129.928 578.449 129.898 577.955 129.885C576.197 129.84 575.289 130.973 574.266 132.251C573.525 133.178 573.134 134.062 572.765 135.143C572.448 136.075 570.983 136.736 570.895 137.606C570.583 140.676 568.216 142.797 567.638 145.421C568.298 146.586 568.725 147.753 569.501 148.6C570.342 149.515 571.508 150.131 572.557 150.896C571.756 152.484 570.466 152.216 569.293 152.176C568.527 152.15 567.665 151.82 567.635 153.241C568.673 153.241 569.718 153.359 570.72 153.202C571.45 153.089 572.54 152.783 572.748 152.27C573.594 150.178 575.262 150.376 576.893 150.541C578.336 150.687 579.499 150.426 580.792 149.627C583.79 147.774 587.266 147.277 590.709 146.843C591.17 146.785 591.677 147.1 592.165 147.236C595.072 148.045 597.711 149.539 600.665 150.331C602.975 150.95 605.259 150.576 607.525 151.079C608.893 151.382 611.933 149.232 612.215 148.253C612.603 146.906 611.507 145.12 609.562 143.832C606.912 142.077 604.44 140.051 601.588 138.602C600.199 137.896 598.762 137.257 597.468 136.404C596.733 135.918 595.788 135.089 595.741 134.365C595.655 133.014 597.217 133.645 597.929 133.2C598.508 131.635 599.116 130.102 597.536 128.523C594.955 130.187 591.183 128.909 589.087 131.565C590.124 134.833 593.253 132.598 594.911 134.136ZM597.615 319.06C596.451 318.714 595.732 318.708 595.334 318.347C593.588 316.765 591.846 317.823 590.229 318.396C589.138 318.782 588.113 319.698 588.069 321.086C588.011 322.953 588.055 324.824 588.055 326.581L592.653 326.896L597.615 319.06ZM650.052 213.785C651.396 212.613 651.397 212.613 649.825 211.501L650.052 213.785ZM941.373 69.7551C940.752 68.0362 940.752 68.0362 939.468 68.2252L941.373 69.7551ZM160.308 253.049C162.204 254.494 164.559 254.24 166.755 253.506C169.091 252.724 171.366 252.837 173.684 253.184C174.241 253.267 174.766 253.693 175.259 254.03C176.222 254.688 177.153 255.394 178.423 256.318C178.558 257.83 178.887 259.75 177.843 261.66C177.361 262.542 177.271 263.644 177.035 264.653C176.661 266.256 176.374 267.88 175.943 269.466C174.991 272.967 174.957 276.173 178.37 278.503C179.227 279.087 179.912 279.943 180.803 280.454C182.374 281.355 184.032 281.656 185.755 280.667C186.652 280.152 187.64 279.79 188.6 279.39C191.897 278.017 196.331 280.014 197.803 283.74C199.071 282.429 200.375 281.282 201.418 279.933C202.186 278.941 202.858 277.738 203.115 276.531C203.358 275.387 203.885 274.69 204.733 274.02C206.584 272.56 208.464 271.452 210.96 271.163C212.663 270.967 214.693 270.117 215.773 268.866C217.195 267.218 218.5 267.457 220.152 267.76C220.781 269.887 219.307 270.596 217.773 271.4L218.282 273.347C220.181 271.386 223.104 271.359 224.231 268.392L225.98 270.705C227.677 270.514 229.193 270.827 230.283 272.627C230.697 273.311 232.036 273.623 233 273.748C235.13 274.025 237.201 274.025 239.197 275.279C240.808 276.292 242.812 276.221 244.537 274.8C245.145 274.298 246.084 274.039 246.894 273.977C248.527 273.853 250.176 273.94 251.734 273.94C252.745 274.819 250.121 276.502 252.681 277.044L253.668 274.026C254.72 273.78 255.863 273.342 256.632 274.576C257.145 275.399 256.427 276.576 254.888 277.71C255.49 278.401 256.301 279.003 256.626 279.803C256.921 280.532 256.688 281.477 256.688 282.331C257.861 282.716 258.989 283.141 260.147 283.455C262.156 284.002 263.506 285.351 264.247 287.163C264.897 288.751 266.016 289.75 267.214 290.884C269.246 292.807 271.322 293.786 274.181 293.321C276.241 292.985 278.334 293.324 280.257 294.336C280.699 294.569 281.251 294.613 281.76 294.697C283.439 294.976 284.891 295.558 285.84 297.128C286.229 297.771 286.829 298.418 287.491 298.742C289.98 299.961 290.761 302.289 291.292 304.649C291.759 306.724 292.382 308.613 293.702 310.324C294.227 311.005 294.457 312.072 294.46 312.965C294.475 316.026 295.447 317.338 298.342 317.896C298.935 318.011 299.51 318.228 300.25 318.443L301.047 320.569C303.085 319.711 304.92 320.33 306.732 321.249C307.585 321.682 308.467 322.056 309.372 322.368C311.857 323.222 314.024 324.4 314.544 327.462C316.965 326.325 318.973 327.087 320.956 327.993C323.388 329.103 325.859 329.603 328.56 329.056C329.49 328.867 330.667 329.095 331.529 329.532C334.007 330.789 336.213 332.457 338.029 334.605C339.356 336.176 340.954 337.355 343.079 337.54C346.587 337.844 348.056 340.088 348.861 343.211C349.934 347.375 349.305 351.4 347.624 355.149C346.508 357.638 344.711 359.885 342.916 361.981C342.004 363.045 341.247 364.089 340.618 365.328C339.879 366.787 339.088 368.33 337.939 369.446C336.474 370.871 335.641 372.655 335.489 374.417C335.294 376.681 335.811 379.043 336.266 381.314C336.488 382.421 336.845 383.352 336.43 384.556C335.988 385.835 336.078 387.289 335.831 388.648C335.65 389.644 335.29 390.607 335.026 391.59C334.765 392.563 334.212 393.584 334.334 394.513C334.691 397.228 333.637 399.459 332.243 401.568C331.448 402.77 330.829 403.857 331.062 405.399C331.177 406.168 330.931 407.248 330.426 407.799C329.451 408.865 328.173 409.626 327.563 411.061C327.422 411.393 326.694 411.537 326.209 411.645C325.534 411.794 324.834 411.833 324.143 411.911C321.017 412.266 318.058 412.986 315.368 414.806C313.89 415.806 311.948 416.105 310.433 417.064C305.335 420.29 305.45 421.533 306.21 427.868C306.281 428.46 306.647 429.014 306.739 429.608C307.124 432.095 307.045 434.394 304.793 436.194C303.379 437.324 302.287 438.734 302.168 440.788C302.066 442.55 301.341 442.919 299.29 442.843C298.389 444.728 297.489 446.556 296.957 448.728C296.063 452.383 294.561 455.962 291.995 458.916C291.089 459.959 290.221 460.542 288.635 460.176C285.335 459.415 281.962 458.972 278.001 458.292C278.884 458.819 279.216 459.113 279.6 459.228C281.691 459.859 283.087 461.065 283.448 463.347C283.531 463.872 283.962 464.488 284.414 464.783C285.768 465.664 285.761 466.903 285.535 468.237C285.451 468.752 285.315 469.258 285.13 469.747C284.61 471.095 284.413 472.892 283.426 473.665C281.71 475.009 279.748 476.208 277.278 476.185C274.978 476.164 272.674 476.561 270.51 476.761L272.004 483.358C269.656 486.829 266.319 485.099 262.879 484.468C263.465 485.805 263.844 486.921 264.438 487.908C264.694 488.332 265.366 488.613 265.899 488.73C266.473 488.857 267.13 488.599 267.708 488.718C268.738 488.93 269.43 489.665 269.424 490.716C269.418 491.772 268.678 492.207 267.638 492.114C267.382 492.091 267.123 492.11 266.815 492.11C266.788 494.039 266.145 495.93 267.129 497.824C267.312 498.177 266.769 499.111 266.33 499.539C265.473 500.376 264.464 501.062 263.495 501.778C261.967 502.906 261.726 504.431 263.097 505.722C264.352 506.904 265.724 507.947 267.514 508.361C270.332 509.013 271.177 511.672 269.346 513.893C268.963 514.357 268.454 514.717 268.022 515.142C267.715 515.444 267.293 515.727 267.17 516.1C266.48 518.194 265.652 520.277 265.288 522.434C264.974 524.297 266.326 525.738 267.69 526.769C269.081 527.819 269.946 529.075 270.573 530.643C270.9 531.435 271.396 532.146 272.028 532.726C274.023 534.538 276.117 536.201 278.763 537.058C280.459 537.607 282.076 538.403 284.042 539.218C282.347 540.628 280.69 540.238 279.147 540.175C276.823 540.079 274.505 539.851 272.186 539.659C271.33 539.588 270.446 539.569 269.632 539.33C268.554 539.014 268.944 537.878 268.596 537.154C268.204 536.336 267.533 535.576 266.813 535.008C265.232 533.761 265.187 533.817 265.232 531.97C264.339 531.387 263.637 531.821 262.912 532.377C259.588 534.931 257.554 534.879 254.741 531.763C253.415 530.295 251.526 529.094 251.515 526.645C251.511 525.905 250.773 525.074 250.194 524.449C247.965 522.046 246.914 518.981 245.403 516.174C245.243 515.876 245.006 515.494 245.073 515.216C245.871 511.907 243.738 509.415 242.594 506.707C241.843 504.928 241.043 503.242 240.999 501.285C240.986 500.85 240.941 500.417 240.865 499.988C240.471 497.695 240.145 495.385 239.632 493.119C239.347 491.86 238.816 490.637 238.246 489.471C238.014 488.998 237.351 488.368 236.944 488.409C234.727 488.633 234.313 486.962 233.89 485.519C233.185 483.11 232.521 480.658 232.195 478.178C231.859 475.62 231.004 473.29 229.922 471.011C229.447 470.011 229.371 469.204 229.843 468.083C230.315 466.962 230.16 465.568 230.239 464.291C230.323 462.924 230.144 461.502 230.461 460.197C231.218 457.087 231.236 454.007 230.58 450.909C230.079 448.544 229.445 446.206 228.975 443.836C228.763 442.763 228.799 441.639 228.742 440.536C228.72 440.104 228.873 439.629 228.742 439.242C227.515 435.602 228.451 431.913 228.416 428.246C228.402 426.705 228.146 425.165 227.987 423.626C227.943 423.196 227.81 422.773 227.788 422.343C227.426 414.894 227.29 407.426 226.62 400.006C226.342 396.93 226.355 393.426 223.73 391.052C220.973 388.558 218.304 385.905 214.769 384.448C212.844 383.655 210.951 382.775 208.999 382.058C206.868 381.275 206.017 379.228 204.636 377.742C203.385 376.395 201.998 374.941 201.965 372.842C201.963 372.687 201.843 372.51 201.732 372.382C198.774 368.944 197.75 364.504 195.627 360.635C195.334 360.102 195.126 359.456 194.691 359.08C191.746 356.531 191.309 352.538 189.119 349.541C187.741 347.658 186.827 345.467 184.335 344.637C183.323 344.3 182.77 343.494 182.904 342.173C182.998 341.236 182.654 340.113 182.153 339.285C181.068 337.491 181.408 335.985 182.659 334.523C183.662 333.351 184.71 332.216 185.71 331.042C186.265 330.391 186.136 329.86 185.434 329.32C182.639 327.168 182.373 324.275 183.799 321.167C184.588 319.447 186.379 317.922 185.637 315.52C185.329 314.52 186.478 313.812 187.451 313.691C189.361 313.454 190.286 312.683 190.441 310.583C190.533 309.347 191.377 308.164 192.715 307.301C194.477 306.166 195.382 304.116 195.808 302.09C196.234 300.068 196.198 297.952 196.434 295.886C196.746 293.142 195.773 290.771 194.438 288.481C193.391 286.686 193.401 286.68 193.781 284.437L189.936 281.96L186.984 284.496C186.984 284.85 186.895 285.218 187 285.517C187.318 286.415 187.407 287.359 186.459 287.773C185.432 288.223 184.106 288.465 183.337 287.392C182.193 285.794 180.646 285.408 178.857 285.142C177.108 284.882 175.569 284.122 174.754 282.313C173.869 280.35 171.914 279.581 170.159 278.741C167.526 277.482 166.8 276.009 168.124 273.409C168.455 272.758 169.36 272.398 170.177 271.768C170.177 271.947 170.242 271.738 170.165 271.64C169.904 271.307 169.594 271.013 169.321 270.724C166.682 272.116 165.798 271.905 164.773 269.18C164.144 267.507 162.923 266.474 161.699 265.411C161.251 265.022 160.428 264.877 159.796 264.92C157.38 265.086 155.444 263.842 153.442 262.842C152.907 262.575 152.617 261.816 152.103 261.135C148.512 262.081 146.355 259.967 144.34 257.352C143.348 256.063 142.038 255.012 140.831 253.897C139.64 252.799 138.24 252.595 136.704 253.064C135.796 253.342 134.868 253.552 133.952 253.801C132.211 254.276 130.491 254.161 128.831 253.509C125.839 252.336 122.87 251.106 119.89 249.903C117.701 249.02 115.9 247.516 113.937 246.294C111.188 244.583 108.15 243.359 105.921 240.877C102.747 240.167 102.588 237.448 102.103 235.01C102 234.496 102.302 233.795 102.624 233.319C104.346 230.78 103.636 228.399 102.268 226.035C101.704 225.06 101.018 224.138 100.584 223.109C99.2697 219.992 97.326 217.398 94.6006 215.388C93.5454 214.609 92.9038 213.715 93.4174 212.267C93.5827 211.8 93.3747 211.088 93.1172 210.605C92.1853 208.857 90.9084 207.306 90.6424 205.21C90.5556 204.524 89.8775 203.847 89.3373 203.296C87.1338 201.047 86.4732 198.264 86.362 195.249C86.3117 193.875 86.6271 192.148 85.9261 191.234C85.2572 190.363 83.4819 190.339 82.2247 189.952C80.2658 192.738 80.1622 195.872 82.0579 198.458C83.1139 199.898 83.9002 201.33 83.9794 203.184C84.0175 204.084 84.6446 204.948 84.9387 205.85C85.53 207.66 86.1395 209.467 86.6241 211.307C87.3647 214.119 87.7517 217.037 89.6466 219.432C90.5579 220.584 90.8947 221.939 90.1419 223.317C89.9361 223.693 89.402 223.889 88.8443 224.294C88.4352 223.522 88.1411 222.924 87.8104 222.348C86.9944 220.929 86.2873 219.487 84.5951 218.757C82.6796 217.931 82.4388 217.19 82.7931 215.003C83.2815 211.991 82.9066 211.774 80.1401 210.548C78.6704 209.897 77.4452 208.429 76.4417 207.082C75.7385 206.138 76.3625 204.992 77.4772 204.317C79.1443 203.308 79.366 202.63 78.5469 200.982C78.3923 200.672 78.2406 200.334 78.0014 200.096C75.9008 198.008 75.7514 195.414 75.6676 192.629C75.577 189.617 75.1404 186.569 74.4447 183.635C73.8276 181.033 71.727 179.461 69.2279 178.721C66.3889 177.882 66.3981 177.995 66.3242 175.06C66.2609 172.561 65.9249 170.06 66.0034 167.569C66.072 165.399 66.2487 163.295 65.0106 161.356C64.8362 161.084 64.7699 160.678 64.8011 160.348C65.0784 157.471 64.9101 154.495 67.1692 152.143C68.0545 151.221 69.0549 150.07 69.2561 148.896C69.8427 145.479 72.2565 143.309 74.172 140.778C76.7907 137.316 79.6456 134.001 81.9276 130.33C83.5939 127.65 84.4991 124.497 85.8012 121.419C84.88 120.41 84.0564 119.543 83.2716 118.642C81.9169 117.087 80.9417 115.426 81.8849 113.205L87.018 113.689L87.2458 113.266C86.8572 112.955 86.5151 112.533 86.0732 112.35C84.0694 111.523 83.4591 110.803 84.349 109.097C85.5353 106.823 85.3966 104.506 85.0743 102.228C84.7238 99.7474 85.2618 97.8007 87.3791 96.2022C87.0584 95.5188 86.7574 94.9199 86.4953 94.3043C86.298 93.8418 85.9764 93.3458 86.0092 92.8863C86.1974 90.2158 86.2271 90.2181 84.6004 87.8706C84.8396 87.4394 85.1376 86.9418 85.3974 86.4245C85.952 85.3212 85.5459 84.1814 84.3695 84.1646C82.2384 84.1341 81.555 82.669 80.9279 81.1344C80.1957 79.3416 79.1801 78.2681 77.0467 78.038C74.0508 77.715 71.2386 76.4464 68.1254 76.3382C66.1109 76.2681 64.2563 75.0307 62.9603 73.1419L57.5514 74.8951C57.3327 76.8068 56.042 77.6525 54.1761 78.0807C51.2236 78.758 48.323 79.6617 45.3866 80.4129C44.8296 80.5554 44.2048 80.4335 43.609 80.4335C43.6814 78.9736 43.6814 78.9736 45.9153 76.9302C45.1641 77.0764 44.7161 77.0917 44.3283 77.2502C42.1575 78.1401 39.8855 78.8601 37.8611 80.0122C29.0106 85.0447 19.1559 87.6847 9.96862 91.9019C9.26155 92.2265 8.5804 92.6067 7.89391 92.974C6.24892 93.8524 4.60469 94.4399 2.70446 93.6384C2.06368 93.3679 1.253 93.4982 0.393555 92.9541C1.22786 92.692 2.07816 92.4711 2.89189 92.1572C4.09192 91.6947 5.29652 91.2269 6.44626 90.6547C9.23185 89.2664 11.9572 87.7556 14.7626 86.41C16.9981 85.338 19.3151 84.4359 21.9376 83.3128C19.8286 82.115 18.0823 81.7691 16.1196 82.275C14.8045 82.6141 13.4216 82.976 11.9847 82.2164C11.8178 80.3246 13.8963 80.1546 14.6628 78.7192C13.5908 78.4929 12.7778 78.8593 11.9725 79.1801C11.1206 79.5199 10.4121 79.4056 9.98538 78.5492C9.52137 77.6189 8.8364 76.4098 9.87642 75.7157C11.0025 74.9636 11.0742 73.9023 11.4818 72.8965C12.0647 71.4573 12.9531 70.4767 14.6217 70.1338C16.0419 69.842 17.4057 69.1974 18.7429 68.594C21.2687 67.4541 23.6588 65.9699 26.5282 65.7627C26.9465 65.7322 27.3869 65.5524 27.7542 65.3345C29.355 64.3866 31.0388 63.8884 32.9284 63.8137C35.058 63.7299 36.8576 62.6845 38.7266 61.0327H26.9496C27.2124 59.63 27.3885 58.2075 27.7831 56.849C27.9226 56.369 28.5435 55.7914 29.0342 55.6893C32.853 54.8977 36.69 54.1952 40.5316 53.5209C40.8729 53.4607 41.3682 53.7114 41.6486 53.9719C42.6703 54.919 43.7865 54.9213 45.0254 54.5342C46.3161 54.1312 47.632 53.8058 49.4949 53.2923C46.7923 51.7601 46.3047 49.2488 45.0978 47.1748C47.1093 45.0689 49.6914 45.0369 52.1342 44.5767C53.9993 44.2254 55.8965 43.9191 57.684 43.3103C61.1218 42.14 64.4849 40.7533 67.8937 39.4962C68.7021 39.1983 69.5593 38.9438 70.4111 38.8661C73.5198 38.5849 76.6338 38.348 79.75 38.1742C81.5626 38.0729 83.3204 38.1239 85.1094 37.3971C86.298 36.914 87.8637 37.1212 89.2146 37.3239C92.5442 37.8245 95.7641 38.9263 99.2019 38.9042C100.456 38.8958 101.697 39.6341 102.974 39.8048C106.564 40.2848 110.129 41.0909 113.811 40.4478C115.451 40.1613 117.052 40.5415 118.489 41.5968C119.602 42.4143 120.838 42.7793 122.375 42.6094C123.45 42.4905 124.713 43.1587 125.74 43.7439C127.17 44.5584 128.522 44.7245 129.893 43.8414C131.936 42.5256 134.297 43.0429 136.49 42.6033C139.292 42.041 142.122 41.596 144.955 41.2219C146.664 40.9964 148.408 41.0459 150.128 40.8897C151.403 40.7747 152.722 40.7008 153.92 40.3023C156.053 39.5922 156.33 39.6508 157.029 41.8833C157.106 42.1278 157.208 42.3648 157.346 42.7336C157.987 42.8182 158.876 43.2281 159.309 42.9439C161.445 41.5442 163.831 42.4464 166.064 42.0212C168.799 41.5008 171.465 42.028 173.745 43.705C175.178 44.7588 176.581 45.1694 178.362 44.7405C180.168 44.3054 180.916 44.7131 183.256 46.7222L181.282 48.6682C181.659 48.8107 182.072 49.1109 182.472 49.0941C184.897 48.9882 187.327 48.8899 189.738 48.6278C191.445 48.4419 193.068 47.8362 194.87 48.3939C195.49 48.5859 196.531 47.9893 197.161 47.4804C200.177 45.0392 206.122 44.8403 208.919 47.3135C210.793 48.9707 212.977 48.5973 215.115 48.5684C217.106 48.5409 219.095 48.3505 221.085 48.2461C222.106 48.1928 223.01 48.0312 224.021 47.5741C226.311 46.5394 228.54 47.4522 230.759 48.7108C233.341 47.6777 236.219 46.8396 237.725 43.75C237.295 43.4178 236.879 43.1366 236.512 42.8037C235.373 41.7705 235.44 41.516 236.346 40.2276C238.571 37.0618 242.018 36.1391 245.433 35.1707C246.507 34.866 247.878 35.7109 247.969 36.8416C248.12 38.7403 248.781 40.8958 246.084 42.0821C247.607 42.9797 249.154 43.6883 248.23 45.8735C248.829 45.4704 249.39 44.8266 250.037 44.7229C250.888 44.5866 251.961 44.6224 252.655 45.0468C253.45 45.5321 253.147 46.8236 252.184 47.7691C251.701 48.2438 251.125 48.6248 250.662 48.992C250.626 50.0861 251.224 50.3277 252.006 50.2903C252.346 50.2743 252.717 50.2012 253.01 50.0381C256.584 48.0518 260.002 45.8841 262.009 42.0989L258.261 40.0631C256.345 39.0215 255.714 37.0916 257.244 35.7132C259.68 33.5197 262.378 31.5889 265.119 29.7794C265.96 29.2239 267.299 29.3992 268.416 29.2902C269.879 29.1477 271.346 29.0464 272.813 28.9458C273.766 28.8803 274.801 28.6761 274.888 29.7382C277.51 29.5775 279.923 29.3413 282.339 29.3062C284.521 29.2742 284.798 29.7687 284.267 32.0431C284.21 32.2892 284.211 32.549 284.17 32.9482H288.457C287.083 31.6141 285.9 30.4979 286.571 28.7584C290.206 27.8989 294.106 28.8872 295.609 31.2224L293.575 32.1276C293.608 32.2099 293.622 32.4035 293.714 32.4515C294.938 33.0976 296.206 33.6667 297.396 34.3677C298.898 35.2522 300.371 36.0462 302.165 36.319C304.247 36.6352 306.148 37.6394 307.688 39.0764C308.39 39.7316 308.906 40.7503 309.148 41.6959C309.53 43.1831 309.102 44.4441 307.376 44.9073C307.079 44.9866 306.846 45.3035 306.267 45.7599C307.134 46.3047 307.78 46.8175 308.507 47.1451C309.852 47.7501 311.233 48.2781 312.621 48.7794C314.128 49.3235 315.063 50.3825 315.616 51.8409C316.319 53.6938 316.128 54.4108 314.583 55.6687C313.236 56.7651 311.897 57.8699 310.542 58.9556C309.165 60.0589 307.894 59.9942 306.653 58.7134C306.108 58.1505 305.619 57.5366 305.192 56.8802C303.61 54.4512 302.938 54.1312 300.168 54.6691C299.761 54.7483 299.376 54.9335 298.64 55.1872C299.316 55.9819 299.827 56.6211 300.38 57.2215C301.082 57.9842 301.904 58.6517 302.525 59.4723C303.85 61.2216 303.783 62.9779 302.459 64.728C301.052 66.5886 298.895 67.3437 296.979 66.6236C295.953 66.2381 294.941 65.8137 293.534 65.2522L295.445 69.9479C294.302 71.0809 293.093 70.7601 291.971 70.383C289.918 69.6935 287.89 68.9186 285.879 68.1132C284.466 67.5471 283.333 66.6854 282.918 65.0693C282.728 64.3295 282.294 63.6438 281.917 62.9634C281.255 61.7694 280.32 61.4525 278.886 61.55C275.954 61.7496 272.998 61.6628 270.055 61.579C268.842 61.5447 268.461 60.6685 268.984 59.5401C269.998 57.3533 272.218 56.4627 274.561 56.9815C276.313 57.3701 278.148 57.4989 279.949 57.5171C281.048 57.5278 281.984 57.1537 282.489 55.7693C282.819 54.8642 284.051 54.2539 284.941 53.5948C286.123 52.7186 287.463 52.0336 288.561 51.0682C290.123 49.6945 289.913 48.1158 288.047 47.1581C286.847 46.5417 286.038 45.7211 285.256 44.6186C284.435 43.4628 283.096 42.6764 282.085 41.8162C277.474 43.3355 273.084 41.7758 268.307 42.0197C268.838 42.3907 269.077 42.5942 269.347 42.7412C271.686 44.0205 271.823 45.4315 269.622 46.9333C268.493 47.7036 267.005 48.0297 267.232 49.9025C267.265 50.1837 266.765 50.6103 266.424 50.8412C264.63 52.065 262.815 53.2576 260.979 54.4184C259.798 55.1598 258.524 55.1163 257.207 54.7247C255.415 54.1914 255.404 54.2256 253.147 55.1971C254.744 56.7187 256.32 58.1671 256.898 60.4033C257.082 61.1119 258.077 61.6102 258.678 62.1824C258.038 64.315 257.636 64.5634 255.858 63.9729C255.612 63.8906 255.321 63.8449 255.136 63.6842C253.072 61.8899 251.107 62.846 249.153 63.8853C247.933 64.5337 246.734 65.2217 245.503 65.9052L242.447 63.4792L247.502 57.6094C246.556 57.6726 246.145 57.5712 245.957 57.7312C243.292 60.017 240.225 61.5767 236.954 62.76C235.57 63.2605 234.355 64.0781 233.086 64.7067C230.964 65.7573 229.392 68.1818 226.503 67.656C225.819 67.5311 225.008 68.018 224.272 68.2717C219.607 69.8786 215.434 72.3762 211.758 75.6204C210.17 77.0216 208.955 78.8457 207.313 80.7817C208.282 81.0095 208.753 81.0827 209.197 81.2327C210.209 81.5749 210.493 82.2301 210.127 83.2679C209.674 84.5563 209.329 85.8828 208.916 87.2611C209.358 87.3502 209.63 87.4965 209.842 87.4348C213.892 86.2584 216.796 87.8478 219.809 90.6036C222.031 92.6357 224.783 94.5085 228.336 94.3652C230.152 94.2921 232.002 95.0807 234.04 95.5241C232.742 97.8518 231.616 99.8572 230.505 101.87C228.935 104.711 229.378 107.111 231.891 109.492C233.162 109.021 234.498 108.681 235.675 108.046C236.982 107.342 237.982 106.243 238.374 104.717C238.714 103.392 239.085 102.075 239.422 100.749C239.569 100.169 239.818 99.5592 239.757 98.9916C239.573 97.2811 240.426 96.5283 241.92 95.9439C244.497 94.9359 246.974 93.6772 249.526 92.5999C251.487 91.7717 252.695 90.1975 253.784 88.5129C255.144 86.4108 255.034 85.5384 253.368 83.4911C252.356 82.2461 252.444 81.5703 253.805 80.8007C254.483 80.4175 255.212 80.1089 255.945 79.8438C258.124 79.0567 259.113 77.3912 259.046 75.2182C259.002 73.8345 259.482 72.9164 260.431 72.0402C260.846 71.6584 261.18 71.0984 261.348 70.5567C262.248 67.6576 264.724 66.3669 267.593 67.3193C268.903 67.7544 270.237 68.1277 271.575 68.4683C272.071 68.594 272.751 68.7662 273.109 68.5399C275.761 66.8637 277.033 69.2035 278.179 70.594C278.976 71.5617 279.694 72.2733 280.796 72.7945C281.544 73.148 282.145 73.8124 282.936 74.4372C282.426 75.5259 281.963 76.4441 281.559 77.3873C280.603 79.6236 280.764 80.6948 282.176 81.8195C283.441 82.8275 285.608 82.9402 287.074 81.9802C289.179 80.6004 291.241 79.155 293.326 77.7431C294.087 77.2273 294.858 76.7267 295.816 76.0928C296.949 79.9138 298 83.3799 298.989 86.8634C299.171 87.5049 299.276 88.2599 299.12 88.8901C298.291 92.2608 299.56 94.7561 302.79 95.915C303.689 96.2373 304.631 96.491 305.453 96.9542C305.898 97.2041 306.502 97.9615 306.394 98.2625C305.956 99.4945 306.636 100.049 307.472 100.589C308.693 101.379 309.185 102.315 308.794 103.881C308.34 105.702 308.601 107.708 306.682 108.975C306.317 109.217 306.624 110.314 306.322 110.849C305.578 112.169 304.661 113.392 303.68 114.851C304.059 115.518 304.377 116.855 305.146 117.209C305.888 117.551 307.092 116.846 308.103 116.663C308.609 116.571 309.158 116.523 309.654 116.622C310.807 116.85 311.38 117.862 310.667 118.725C309.345 120.325 309.812 122.367 308.9 124.06L310.98 125.229L308.721 128.351C306.419 128.133 304.452 127.315 302.32 125.996C301.716 125.622 300.862 125.501 300.129 125.518C297.195 125.586 294.263 125.783 291.329 125.857C290.796 125.871 290.254 125.529 289.33 125.223C291.833 122.633 294.146 120.361 296.316 117.958C298.497 115.541 300.534 112.995 302.688 110.441C300.75 109.842 299.039 110.305 297.433 111.525C295.284 113.156 293.063 114.684 290.318 115.131C289.313 115.295 288.253 115.543 287.278 115.384C284.533 114.933 281.734 114.912 278.982 115.323C276.679 115.66 274.29 115.46 271.941 115.424C270.762 115.406 269.85 115.756 268.839 116.427C267.418 117.37 265.691 117.84 264.15 118.621C262.903 119.253 261.544 119.843 260.911 121.782C261.767 121.327 262.302 121.113 262.76 120.789C265.398 118.925 268.46 118.206 271.554 117.823C272.829 117.666 274.309 118.144 275.514 118.716C276.925 119.386 276.928 120.586 275.668 121.574C274.464 122.52 273.444 123.334 272.967 125.057C272.01 128.52 273.464 131.208 277.117 131.699C278.759 131.92 280.343 132.253 281.646 133.828C281.103 134.1 280.706 134.34 280.28 134.504C278.662 135.126 277.017 135.679 275.416 136.341C274.056 136.903 272.813 137.501 271.188 137.234C270.384 137.101 269.319 137.918 268.528 138.513C267.705 139.13 267.115 140.047 266.341 140.74C265.214 141.749 264.03 141.82 263.366 140.951C262.564 139.898 262.989 138.933 263.845 138.193C265.72 136.57 267.658 135.02 269.571 133.44C269.309 133.47 268.867 133.444 268.48 133.577C265.209 134.696 261.779 135.415 258.879 137.47C258.486 137.749 257.902 137.882 257.41 137.873C256.199 137.851 255.269 138.168 254.465 139.179C254.035 139.72 253.192 140.06 252.475 140.22C250.11 140.748 248.51 142.339 247.071 144.075C246.576 144.673 246.606 145.688 246.326 146.487C246.084 147.178 245.921 148.182 245.414 148.44C243.808 149.259 242.087 150.223 240.356 150.344C237.398 150.549 235.224 152.356 232.665 153.34C232.438 153.428 232.153 153.623 232.086 153.829C231.239 156.476 228.918 157.758 227.004 159.426C226.631 159.751 226.444 160.281 226.136 160.69C225.258 161.859 224.363 163.016 223.42 164.248L221.823 163.27C221.621 165.291 221.61 167.193 221.2 169.004C220.732 171.069 220.38 173.299 218.203 174.513C217.812 174.73 217.397 175.279 217.366 175.702C217.262 177.147 216.44 177.562 215.155 177.752C213.421 178.01 211.755 178.506 210.716 180.15C210.5 180.492 210.084 180.808 209.695 180.926C206.008 182.046 203.525 185.06 200.275 186.879C197.806 188.26 197.165 191.199 195.5 193.292C195.271 193.58 195.284 194.139 195.331 194.556C195.642 197.305 195.971 200.053 196.337 202.795C196.6 204.765 197.164 206.725 197.174 208.692C197.194 212.238 195.157 214.805 192.076 215.609C190.162 212.707 188.365 209.739 187.804 206.229C187.614 205.037 187.265 203.655 187.67 202.628C188.561 200.369 187.467 198.991 186.107 197.579C185.871 197.334 185.576 197.147 185.329 196.949L181.155 197.961C180.857 197.502 180.567 197.092 180.314 196.659C179.354 195.018 178.052 194.22 176.218 194.675C174.328 195.145 172.315 194.675 170.47 195.779C169.654 196.266 168.304 195.861 166.995 195.861V199.65C164.423 199.257 162.094 198.73 159.743 198.593C157.642 198.471 155.725 197.742 153.717 197.385C152.649 197.196 151.349 197.78 150.274 198.278C148.392 199.149 146.68 200.426 144.753 201.155C142.586 201.975 140.941 203.503 139.052 204.69C137.261 205.816 136.625 207.636 136.674 209.63C136.718 211.445 136.218 213.025 135.369 214.59C133.566 217.912 132.698 221.552 132.189 225.251C132.005 226.585 132.667 228.029 132.508 229.373C132.141 232.486 133.382 235.146 134.461 237.883C135.062 239.411 136 240.589 137.621 241.121C138.031 241.255 138.599 241.34 138.791 241.641C139.969 243.496 141.408 242.987 143.108 242.481C144.566 242.048 146.19 242.089 147.742 242.074C152.542 242.028 152.559 242.063 154.435 237.599C154.802 236.728 155.112 235.795 155.224 234.864C155.466 232.838 156.388 231.625 158.45 231.051C161.277 230.265 164.051 229.286 167.034 229.921C167.736 230.071 168.794 230.419 168.934 230.896C169.134 231.584 168.887 232.701 168.396 233.227C167.421 234.271 167.367 235.473 167.005 236.713C166.21 239.43 165.097 242.085 163.816 244.615C163.115 245.998 162.285 247.224 162.004 248.834C161.763 250.229 160.954 251.511 160.308 253.049ZM205.316 131.787C206.413 132.271 207.567 132.656 208.591 133.261C210.084 134.146 210.183 135.118 209.031 136.416C208.328 137.207 207.361 137.794 206.996 138.927C209.743 139.353 209.743 139.353 209.598 142.644L215.909 135.028L218.577 136.509C219.377 133.629 219.141 132.954 216.815 132.109C215.28 131.552 213.678 131.135 212.075 130.813C209.648 130.327 208.43 128.998 208.452 126.533C208.46 125.683 208.596 124.835 208.647 124.274L205.037 121.116C203.975 121.257 202.454 121.237 201.082 121.679C196.475 123.166 192.252 125.513 187.939 127.648L188.079 128.182L197.197 126.785C199.258 128.275 199.868 128.457 202.869 128.092C205.818 127.732 208.331 128.214 209.94 131.469C209.075 131.469 208.431 131.421 207.798 131.482C206.983 131.558 206.177 131.722 205.364 131.843C205.208 131.775 205.032 131.62 204.9 131.651C201.299 132.469 197.923 133.427 195.38 136.612C193.218 139.32 191.747 142.26 190.579 145.418C190.313 146.138 190.54 147.041 190.54 148.328C193.362 146.885 195.308 145.159 195.942 142.574C196.854 138.849 199.105 136.376 202.186 134.383C203.316 133.651 204.278 132.659 205.316 131.787ZM209.46 148.241C212.397 147.899 214.921 146.554 217.433 145.18C214.086 144.524 211.832 146.526 209.46 148.241ZM88.2531 114.874C88.8489 117.781 89.7175 119.174 91.5476 120.206C90.4954 118.61 90.5289 116.402 88.2531 114.874ZM218.006 276.473C216.994 278.318 216.994 278.318 218.625 279.591C219.451 278.412 218.783 277.524 218.006 276.473ZM206.906 148.811L206.916 148.611L205.24 148.491L205.226 148.811H206.906ZM959.555 473.082C958.481 473.649 957.44 474.083 956.528 474.705C955.189 475.619 953.826 475.806 952.32 475.283C950.681 474.714 949.046 474.129 947.389 473.614C944.867 472.828 944.207 471.92 944.452 469.221C944.538 468.276 944.854 467.352 944.97 466.407C945.129 465.104 945.299 463.848 943.57 463.218C943.063 463.033 942.9 461.904 942.506 461.047L938.869 461.484C939.526 458.136 943.048 457.188 943.691 454.093C941.377 455.774 939.048 457.434 936.758 459.146C935.75 459.9 935.058 459.919 934.443 458.853C934.068 458.203 933.78 457.386 933.797 456.652C933.836 454.978 933.372 453.503 932.869 451.92C932.393 450.422 931.58 449.832 930.357 449.285C928.953 448.656 927.623 447.861 926.215 447.24C925.519 446.934 924.688 446.621 923.976 446.721C921.239 447.105 918.516 447.612 915.806 448.157C913.348 448.651 910.908 449.24 908.467 449.815C907.049 450.149 905.615 450.452 904.24 450.923C902.039 451.678 899.882 452.56 897.359 453.521C896.312 455.596 894.241 456.503 891.544 456.296C889.812 456.162 888.07 456.154 886.333 456.096C883.749 456.009 881.362 456.384 879.289 458.213C878.07 459.288 876.573 460.082 875.12 460.85C872.312 462.335 869.57 461.536 867.676 458.908C867.195 458.239 866.449 457.761 865.804 457.177C865.699 455.746 866.415 454.775 867.533 453.932C869.75 452.26 870.186 449.53 871.312 447.219C871.494 446.845 871.158 446.224 871.078 445.715C870.561 442.446 870.202 439.176 870.823 435.87C870.931 435.3 870.815 434.652 870.664 434.075C870.077 431.824 869.379 429.6 868.833 427.339C868.531 426.086 868.448 424.781 868.284 423.622C869.286 422.328 870.235 421.997 871.487 423.248C871.299 422.347 871.189 421.42 870.907 420.548C870.142 418.185 870.71 416.063 872.072 414.137C873.067 412.731 873.604 411.271 873.528 409.531C873.488 408.618 873.453 407.447 875.034 407.898C875.178 407.94 875.393 407.94 875.504 407.861C877.326 406.558 879.329 405.432 880.894 403.869C882.325 402.437 883.894 401.855 885.757 401.82C887.12 401.795 888.348 401.655 889.215 400.435C889.402 400.172 889.756 399.903 890.059 399.869C891.61 399.698 893.155 399.601 894.36 398.384C894.542 398.2 895.039 398.262 895.376 398.31C898.638 398.783 901.021 397.469 902.887 394.843C903.676 393.733 904.796 392.864 905.653 391.795C906.045 391.305 906.421 390.572 906.364 389.993C906.118 387.466 907.539 385.966 909.509 384.395L912.177 387.619C912.651 385.37 911.201 382.187 915.089 382.767C915.25 381.741 915.095 380.533 915.626 379.923C916.231 379.228 917.448 379.067 918.589 378.596C918.509 376.204 920.797 375.79 922.347 374.73C923.093 374.218 924.088 373.993 925.005 373.832C925.621 373.724 926.484 373.729 926.911 374.08C928.128 375.079 929.179 376.281 930.661 377.771L933.912 378.291C932.639 375.183 934.883 373.751 936.487 372.006C936.813 371.651 937.003 371.173 937.286 370.775C937.885 369.93 938.392 368.976 939.144 368.296C940.171 367.366 941.333 366.672 942.919 367.243C943.659 367.51 944.576 367.289 945.302 367.289C946.318 365.717 945.095 364.724 944.368 363.084C945.852 363.432 947.034 363.43 947.885 363.961C950.41 365.537 953.264 365.9 956.062 366.29C957.224 366.452 958.433 366.895 959.808 366.435C961.09 366.006 962.165 367.993 961.512 369.408C961.262 369.95 960.825 370.41 960.455 370.894C959.621 371.989 958.668 373.011 957.966 374.183C957.317 375.268 956.932 376.511 956.354 377.863C958.859 380.023 961.416 382.171 963.903 384.396C965.174 385.533 966.601 386.517 967.927 387.529C970.002 389.111 972.299 389.391 973.126 386.109C974.099 382.25 975.943 378.714 976.748 374.761C977.498 371.078 979.237 367.594 980.564 364.032C980.92 363.074 981.359 362.147 981.853 360.988C983.631 362.161 983.528 364.015 984.011 365.537C984.504 367.091 984.926 368.687 985.17 370.296C985.425 371.979 985.431 373.7 985.546 375.422C988.219 375.428 990.381 377.644 990.374 380.493C990.373 381.013 990.306 381.581 990.486 382.043C991.757 385.302 991.49 388.717 991.45 392.082C991.429 393.914 992.085 394.894 993.673 395.754C995.092 396.522 996.289 397.748 997.462 398.896C997.91 399.335 998.059 400.106 998.272 400.749C998.406 401.152 998.256 401.729 998.494 402.003C999.909 403.642 999.9 405.654 999.989 407.758C1002.5 408.321 1003.7 409.854 1003.55 412.413C1003.52 412.888 1003.7 413.568 1004.03 413.839C1005.97 415.411 1006.44 417.819 1007.59 419.833C1007.71 420.05 1007.88 420.24 1008.09 420.528L1009.93 419.609C1009.59 420.444 1009.39 420.888 1009.23 421.345C1008.88 422.307 1008.51 423.265 1008.23 424.247C1007.98 425.157 1007.9 426.122 1007.61 427.018C1007.31 427.934 1007.03 428.729 1007.41 429.763C1007.66 430.483 1007.55 431.521 1007.22 432.235C1005.68 435.536 1003.99 438.772 1002.37 442.036C1002.1 442.57 1001.89 443.129 1001.64 443.671C1001.31 444.375 1001.11 445.211 1000.61 445.75C998.952 447.506 997.23 449.197 995.444 450.818C993.514 452.567 991.395 454.114 989.526 455.922C988.369 457.041 987.51 458.473 986.544 459.784C986.237 460.2 986.127 460.873 985.737 461.099C982.303 463.082 981.244 466.952 978.843 469.754C977.975 470.768 977.097 471.357 975.9 471.636C975.395 471.754 974.87 471.799 974.351 471.844C971.876 472.058 969.802 473.08 967.702 474.439C962.734 477.652 963.307 476.952 959.555 473.082ZM422.168 40.2238L424.306 41.9602C419.781 43.6311 415.968 45.9336 411.683 46.806C407.497 47.6586 403.336 49.1985 398.643 48.4548C396.479 50.0061 394.245 52.0465 391.642 53.354C388.808 54.778 385.657 55.6032 382.59 56.5068C381.816 56.7346 380.836 56.2653 379.566 56.052C378.528 57.2642 376.77 57.7861 374.767 57.6764C373.351 57.5987 372.232 58.2829 371.376 59.3305C370.553 60.3378 369.71 61.3702 369.117 62.5169C367.817 65.0289 366.006 66.8926 363.128 67.6995C362.713 71.948 359.129 73.7743 356.543 76.3389C355.432 77.4406 353.122 77.0384 351.956 75.4566C350.238 73.1251 348.129 72.6817 345.57 73.4619C344.663 73.7385 343.892 73.4825 343.532 72.7655C341.762 69.2363 339.378 65.9082 339.588 61.6742C339.614 61.1561 339.754 60.6403 339.748 60.1245C339.736 59.2978 339.81 58.4177 339.557 57.6573C338.788 55.3464 338.779 53.0439 339.693 50.8397C340.786 48.2019 342.74 46.4898 345.666 45.9489C346.88 45.7249 348.354 45.8277 348.971 44.4075C348.929 42.4623 346.332 41.7157 346.891 39.2341L351.694 39.4901C351.941 37.3148 350.222 37.1449 349.058 36.8173C347.778 36.4569 346.357 36.594 345.127 36.5216C344.455 35.0534 345.172 34.0987 345.646 33.0884C347.205 29.7741 346.723 26.881 344.341 24.2067C343.395 23.1438 342.219 22.7293 340.932 22.5076C336.73 21.7815 332.531 21.2466 328.246 22.01C326.254 22.3651 324.26 21.9651 322.443 20.9746C321.582 20.5052 320.846 20.0428 321.114 18.765C321.229 18.2157 320.696 17.5322 320.466 16.9067C320.246 16.3093 320.037 15.7075 319.682 14.7071C323.237 14.3048 326.415 14.0228 329.568 13.5657C332.646 13.1184 335.699 12.4914 338.892 11.9207L338.705 9.96253C339.352 9.72176 339.965 9.39948 340.616 9.26766C344.853 8.41202 349.206 7.94344 353.308 6.66646C356.961 5.52891 360.575 5.16322 364.315 5.18303C364.824 5.18608 365.334 4.98873 365.844 4.88587C368.98 4.25271 372.101 4.05385 375.341 4.07214C381.828 4.10947 388.362 3.93725 394.77 2.57722C399.833 1.50291 404.922 1.602 410.056 1.9982C411.998 2.1483 414.004 1.59589 415.969 1.29036C424.169 0.0156649 432.231 0.585563 440.151 3.06105C441.414 3.45572 441.396 3.51134 441.719 4.61689C445.276 4.82413 448.731 5.07024 452.19 5.21195C454.596 5.311 457.009 5.24775 459.417 5.30566C459.892 5.31709 460.361 5.55405 461.252 5.80548C460.582 6.41959 460.25 6.9522 459.791 7.10611C457.906 7.73774 456.015 8.44403 454.067 8.76556C451.544 9.18233 449.208 10.0068 446.923 11.0879C446.067 11.4925 445.123 11.7173 444.279 12.1424C443.3 12.6346 442.366 13.2266 441.451 13.8324C440.674 14.3474 439.95 14.9432 439.154 15.5406C440.021 16.4221 441.844 16.6126 441.313 18.4062C440.876 19.8866 439.453 19.7449 438.312 20.0329C437.99 20.1144 437.67 20.2089 437.401 20.2828C437.338 20.5556 437.213 20.7803 437.277 20.868C438.782 22.9518 438.561 24.4673 436.572 26.4185C433.947 28.9923 431.396 30.9802 427.507 30.9124C425.739 30.8819 423.958 31.5166 421.487 31.9798C422.482 32.7699 422.921 33.2088 423.44 33.5105C424.262 33.9882 425.185 34.3014 425.98 34.8165C427.362 35.7125 427.807 37.0664 427.596 38.6718C427.452 39.7667 426.948 40.4425 425.748 40.4006C424.532 40.3587 423.315 40.3274 422.098 40.2924C421.439 39.3758 421.143 38.0767 419.586 37.9441L418.791 39.7247C420.038 39.9122 421.103 40.0684 422.168 40.2238ZM996.736 339.797C999.441 341.141 1002.48 341.442 1003.88 344.744L1000.71 346.585C1000.92 347.03 1001.07 347.408 1001.28 347.758C1002.39 349.691 1004.28 351.105 1004.96 353.346C1005.08 353.734 1005.83 354.305 1006.09 354.215C1007.87 353.592 1007.84 354.751 1008.41 355.932C1009 357.138 1010.46 357.94 1011.6 358.842C1012.25 359.35 1012.96 359.807 1012.63 360.723C1012.25 361.76 1011.26 361.596 1010.4 361.593C1010.15 361.593 1009.81 361.568 1009.65 361.414C1007.83 359.692 1005.66 359.852 1003.36 359.844C1001.38 359.837 999.926 358.337 998.799 356.722C998.352 356.082 997.765 355.43 997.622 354.709C996.989 351.529 994.273 350.849 991.9 349.755C990.718 349.211 989.658 349.588 988.881 350.549C988.182 351.414 987.497 352.332 987.023 353.331C986.222 355.021 984.881 355.646 983.138 355.972C979.912 356.575 977.648 355.026 975.584 352.907C975.045 352.354 974.579 351.729 974.135 351.202C971.416 350.648 969.453 354.117 966.578 352.274C966.417 349.919 967.63 348.26 969.723 346.747C969.047 344.882 968.416 342.911 967.602 341.019C967.317 340.358 966.677 339.69 966.029 339.376C964.159 338.469 962.252 337.568 960.264 336.992C958.302 336.423 956.537 335.658 954.976 334.334C954.362 333.814 953.543 333.535 953.13 333.314C952.121 334.23 951.476 335.306 950.688 335.424C949.225 335.641 949.178 334.048 948.695 333.091C948.116 331.946 947.566 330.786 946.994 329.609L951.729 327.753L951.607 327.228C950.957 327.228 950.306 327.237 949.656 327.225C948.54 327.206 947.603 326.869 947.112 325.758C946.591 324.579 945.624 324.153 944.397 324.079C943.016 323.994 942.202 323.266 941.999 321.999C943.964 321.236 945.778 320.559 947.569 319.826C949.641 318.979 951.478 319.379 953.153 320.773C953.883 321.38 954.594 322.01 955.388 322.694C955.242 325.845 956.458 328.482 958.936 330.9C959.541 330.133 960.034 329.557 960.469 328.941C960.818 328.446 960.974 327.717 961.43 327.41C963.375 326.104 965.359 324.839 967.426 323.743C967.887 323.498 968.768 323.925 969.41 324.165C971.848 325.079 974.249 326.095 976.698 326.977C980.436 328.323 984.276 329.409 987.925 330.958C989.928 331.809 991.637 333.363 993.452 334.64C993.942 334.984 994.306 335.504 994.773 335.887C996.086 336.964 997.336 338.058 996.736 339.797ZM900.691 314.414L896.911 315.311C896.152 315.992 895.797 317.112 895.906 318.38C896.055 320.097 895.596 321.368 893.9 322.2C892.121 323.073 891.144 324.501 891.765 326.652C891.898 327.11 891.927 327.827 891.664 328.133C890.404 329.601 890.421 331.261 890.836 332.942L885.07 335.073L883.508 332.433C882.338 332.025 880.462 333.031 880.034 330.995L875.076 333.027L873.446 330.968C872.755 331.035 872.07 331.19 871.395 331.15C869.784 331.056 869.229 330.501 868.775 328.837C868.386 327.418 867.972 326.006 867.534 324.601C867.411 324.204 867.273 323.644 866.974 323.493C865.126 322.567 865.27 320.847 865.14 319.221C865.071 318.362 865.24 317.388 864.89 316.665C863.875 314.565 864.367 312.808 865.707 311.111C865.971 310.776 866.182 310.398 866.528 309.875L871.442 310.548C871.674 310.289 871.864 310.175 871.887 310.036C872.401 306.876 874.364 305.372 877.441 305.028C878.857 304.869 879.683 303.958 880.27 302.653C881.313 300.331 882.786 298.354 885.244 297.289C887.061 296.502 888.288 295.132 889.235 293.372C890.081 291.8 891.246 290.398 892.268 288.924C892.714 289.135 893.039 289.181 893.153 289.36C894.847 292.047 897.219 293.814 900.146 295.047C901.831 295.757 901.74 296.886 900.164 297.904C899.807 298.134 899.399 298.285 898.946 298.506C899.379 299.847 899.18 300.747 897.593 300.955C896.324 301.121 895.92 301.901 896.255 303.206C896.61 304.586 896.722 306.004 897.099 307.412C897.772 309.923 899.008 312.033 900.691 314.414Z" fill="#0B4870"/>
</svg>
