<svg width="12" height="12" viewBox="0 0 12 12" fill="none" xmlns="http://www.w3.org/2000/svg">
<path d="M0.292893 10.259C-0.0976311 10.6495 -0.0976311 11.2826 0.292893 11.6732C0.683418 12.0637 1.31658 12.0637 1.70711 11.6732L0.292893 10.259ZM11.9322 1.03391C11.9322 0.481626 11.4844 0.0339107 10.9322 0.0339111L1.93215 0.0339112C1.37987 0.0339109 0.932154 0.481626 0.932154 1.03391C0.932154 1.5862 1.37987 2.03391 1.93215 2.03391L9.93215 2.03391L9.93215 10.0339C9.93215 10.5862 10.3799 11.0339 10.9322 11.0339C11.4844 11.0339 11.9322 10.5862 11.9322 10.0339L11.9322 1.03391ZM1.70711 11.6732L11.6393 1.74102L10.225 0.326804L0.292893 10.259L1.70711 11.6732Z" fill="#7BD0FF"/>
</svg>
