<svg width="106" height="99" viewBox="0 0 106 99" fill="none" xmlns="http://www.w3.org/2000/svg">
<path d="M15.3336 33.768C16.8016 33.0918 17.7259 32.5902 18.6969 32.2507C19.5583 31.9518 20.4961 31.8516 21.3877 31.6161C23.6976 30.9905 24.2577 29.9655 23.4242 27.691C22.9569 26.4355 22.2372 25.2575 21.7631 24.0197C21.4049 23.1832 21.2061 22.2871 21.177 21.3775C21.1999 19.7544 22.263 18.9792 23.8866 19.2717C24.6482 19.4323 25.398 19.6444 26.1309 19.9065C27.0052 20.1764 27.8611 20.5583 28.7594 20.7419C30.9678 21.1906 31.7641 20.6472 32.1528 18.4359C32.311 17.4576 32.3891 16.468 32.3864 15.477C32.4121 14.0852 32.5023 12.6683 33.8938 11.9875C35.3956 11.2445 36.6237 12.137 37.7239 13.085C38.6368 13.8695 39.4794 14.7505 40.4524 15.4408C42.0248 16.5482 43.595 16.1622 44.5534 14.4771C45.0078 13.6806 45.2959 12.7915 45.7137 11.9761C46.0836 11.1342 46.5427 10.3344 47.0831 9.59047C48.1796 8.23619 49.733 8.33389 50.5291 9.85624C51.0933 10.9968 51.5213 12.1999 51.8042 13.4405C52.7188 17.1263 53.653 17.5933 57.1803 16.0612C58.2236 15.6204 59.3012 15.2659 60.4024 15.0013C62.4484 14.499 63.7604 15.5509 63.7213 17.6361C63.6456 18.4808 63.4916 19.3166 63.2612 20.1328C63.1296 20.7553 62.9306 21.3657 62.7876 21.9854C62.3539 23.8722 62.8323 24.4726 64.8056 24.3478C65.933 24.2757 67.0462 24.0179 68.1719 23.8653C68.731 23.7769 69.296 23.7309 69.862 23.7278C71.5496 23.7741 72.5658 24.8539 72.1671 26.4849C71.8572 27.5589 71.3176 28.5527 70.5857 29.3976C68.3189 32.1872 68.4198 32.8606 71.6025 34.7111C72.7045 35.3512 73.7516 36.0843 74.8611 36.685C75.8655 37.2497 76.6134 37.9953 76.5421 39.1815C76.4997 39.7876 76.2877 40.3695 75.9303 40.8608C75.5729 41.3521 75.0845 41.7329 74.5209 41.9598C73.6904 42.349 72.7719 42.5365 71.9134 42.8726C71.1594 43.1693 70.4431 43.5385 69.4651 43.9927C70.5804 45.714 71.6142 47.1405 72.4651 48.6668C73.057 49.6981 73.4865 50.8144 73.7386 51.9764C73.8286 52.3234 73.8437 52.6855 73.7827 53.0388C73.7218 53.392 73.5862 53.7282 73.3851 54.0249C73.184 54.3216 72.922 54.5721 72.6165 54.7596C72.311 54.9471 71.969 55.0673 71.6134 55.1122C70.2901 55.3387 68.9504 55.4554 67.608 55.4613C65.6302 55.5171 64.8903 56.2421 65.0825 58.2274C65.1827 59.2138 65.4764 60.1734 65.6394 61.1512C66.0685 63.6934 64.4155 65.3599 61.9377 64.7176C60.5106 64.3384 59.1659 63.6496 57.7714 63.1499C55.2873 62.2609 54.7241 62.5422 53.8168 65.0411C53.3354 66.3722 52.9185 67.6782 51.6674 68.6029C51.2149 69.009 50.6358 69.2459 50.0284 69.2735C49.421 69.301 48.8228 69.1175 48.3354 68.7541C47.3012 68.013 46.3099 67.2137 45.3665 66.3599C43.6497 64.9178 43.2116 64.9125 41.5982 66.3922C40.5453 67.3593 39.4872 68.2789 37.9759 68.4685C36.3442 68.674 35.3534 68.2682 34.6823 66.799C34.1767 65.6337 33.762 64.4309 33.4421 63.2016C32.6779 60.437 31.7158 59.8684 28.9655 60.6726C28.169 60.9594 27.3515 61.184 26.5203 61.3445C24.7491 61.5539 23.8059 60.7546 23.8312 58.9476C23.8798 57.9637 24.0874 56.9943 24.4457 56.0768C25.356 53.4208 25.0028 52.5337 22.3869 51.5121C21.7319 51.2583 21.0261 51.1398 20.3574 50.9214C19.4702 50.6799 18.6047 50.365 17.77 49.9797C16.4018 49.2584 16.2372 48.2486 17.2331 47.0245C17.7452 46.4379 18.292 45.8826 18.8706 45.3615C19.3808 44.8653 19.9218 44.4109 20.4315 43.9365C22.6426 41.7471 22.5803 40.3479 20.1938 38.2938C19.5201 37.6881 18.7093 37.1938 18.0413 36.5653C17.1883 35.8322 16.4725 34.9878 15.3336 33.768ZM71.2266 26.1596C70.2127 25.0415 69.1561 25.0925 68.088 25.2377C66.9787 25.4718 65.8571 25.6432 64.7285 25.7509C62.0082 25.815 60.9134 24.2834 61.6654 21.668C62.0781 20.4648 62.3793 19.2263 62.5653 17.968C62.7327 16.1456 61.7227 15.4582 60.0542 16.1303C58.9312 16.5628 57.8213 17.0301 56.7069 17.4768C53.6697 18.6899 51.8397 17.7582 50.9631 14.5602C50.8137 13.7226 50.607 12.8962 50.3444 12.087C49.99 11.2918 49.5079 10.1151 48.8705 9.96525C47.6976 9.68608 47.3824 11.0127 46.9371 11.8503C46.3399 12.9752 45.9488 14.227 45.283 15.2861C43.9503 17.4479 41.6794 17.8114 39.6462 16.256C38.86 15.6537 38.1624 14.9401 37.4013 14.3053C36.8857 13.8262 36.3153 13.4097 35.7021 13.0642C34.672 12.5538 33.9049 12.9612 33.656 14.1005C33.5635 14.7311 33.5081 15.3665 33.4902 16.0035C33.4369 17.1325 33.3079 18.2567 33.1039 19.3684C32.6589 21.2523 31.482 22.1228 29.5369 21.9125C28.2857 21.6934 27.0523 21.383 25.8466 20.9835C24.8507 20.7244 23.8468 20.4779 22.9547 20.2497C22.5415 20.6576 22.2792 21.194 22.2111 21.7708C22.143 22.3475 22.2731 22.9302 22.58 23.4232C23.1855 24.6211 23.8749 25.7842 24.4056 27.0095C25.6136 29.805 24.7722 31.7014 21.9133 32.6483C20.8372 33.0003 19.6983 33.1666 18.6091 33.4837C18.1037 33.688 17.6174 33.9367 17.1558 34.2268C17.7581 34.8267 18.1646 35.2974 18.6305 35.6957C19.5486 36.4791 20.5729 37.158 21.4127 38.0018C23.4862 40.0552 23.55 41.972 21.6519 44.1621C21.0033 44.91 20.199 45.5145 19.5265 46.2515C18.854 46.9886 18.3294 47.6874 17.454 48.7499C18.5608 48.8766 19.1725 48.9351 19.7721 49.0124C21.2463 49.1244 22.7108 49.3403 24.1547 49.6584C26.4549 50.3023 27.2155 52.0537 26.4447 54.3173C26.2149 54.9832 25.876 55.6193 25.6753 56.2948C25.2526 57.7207 25.7355 58.4874 27.2221 58.6484C28.0665 58.7186 28.9158 58.7019 29.7567 58.5986C32.9266 58.3 34.1987 59.172 34.972 62.2204C35.0336 62.498 35.0951 62.7756 35.1567 63.0532C35.9927 66.3843 36.6213 66.6655 39.6524 65.0601C42.5474 63.5226 44.1505 63.7226 46.5746 65.8978C47.2307 66.5417 47.934 67.1356 48.6785 67.6748C49.7708 68.3926 50.6972 68.1925 51.4224 67.1093C51.8472 66.4557 52.1799 65.7467 52.4112 65.0023C53.6149 61.1648 56.4553 60.7181 59.3948 62.4446C60.1226 62.8843 60.9026 63.2313 61.7166 63.4776C63.0654 63.8687 63.7693 63.2973 63.7133 61.9021C63.672 60.9134 63.5387 59.9236 63.4066 58.939C63.0364 56.2003 63.6879 55.1011 66.2988 54.3979C67.7348 54.0147 69.2255 53.8297 70.6705 53.4876C72.7679 53.0223 72.9823 52.3114 71.6786 50.5672C71.3812 50.1748 71.0158 49.8405 70.6858 49.4714C70.0755 48.787 69.4824 48.0826 68.8539 47.413C66.9945 45.4253 68.6217 40.8952 71.5795 40.978C71.9331 40.9747 72.2842 40.9186 72.6213 40.8117C73.5414 40.559 74.8133 40.676 74.9263 39.3619C75.0393 38.0478 73.9903 37.5739 72.9945 37.1207C71.7885 36.5468 70.4883 36.0585 69.3245 35.4321C67.6087 34.4805 67.1336 32.8492 67.9715 31.0831C68.398 30.3517 68.8751 29.6511 69.3996 28.9865C70.0534 27.9947 70.6454 27.0651 71.2266 26.1596ZM27.0611 60.0379L24.6754 58.7657C25.0689 60.1994 25.6491 60.3835 27.0611 60.0379Z" fill="black"/>
<path d="M100.362 58.7186C95.6059 59.1588 90.9755 59.9971 86.2909 62.0016C86.8883 66.5183 88.749 70.7979 89.6415 75.5511C88.4287 74.9464 87.2044 74.533 86.1949 73.8238C81.6412 70.7027 76.8751 67.9032 71.9315 65.4457C70.596 64.6715 69.3977 63.6816 68.3854 62.5161C67.23 61.2946 67.4308 60.2307 68.96 59.4654C70.1098 58.9394 71.3225 58.5634 72.5683 58.3468C73.6632 58.104 74.8203 58.1655 75.9403 58.0357C78.2083 57.7808 79.2054 56.6104 78.5637 54.4227C77.922 52.2351 76.8383 50.0969 75.9647 47.9337C75.6764 47.2742 75.5038 46.5699 75.4544 45.8518C79.8617 47.5332 83.8483 49.8958 87.9893 51.9329C92.1303 53.9699 96.3027 56.0756 100.458 58.1526C100.409 58.32 100.381 58.5096 100.362 58.7186ZM84.9616 61.4066C88.7088 59.5291 92.6122 58.8898 96.9428 57.8914C95.6866 57.0914 94.949 56.4891 94.1045 56.0616C88.6658 53.3127 83.2092 50.5966 77.7347 47.9133C77.6073 47.8498 77.3994 47.9337 77.0973 47.9576C77.3295 48.4454 77.5224 48.8287 77.6822 49.2086C78.4173 50.7359 79.0592 52.3064 79.6045 53.9114C80.4212 56.7667 79.1692 58.6355 76.254 59.1096C75.0671 59.3027 73.8523 59.2971 72.6518 59.4286C71.1936 59.5902 69.7201 59.7553 68.6338 61.3985C69.6221 62.1825 70.4544 63.0658 71.4679 63.623C75.502 65.8348 79.5899 67.9484 83.6874 70.0815C84.9071 70.717 86.1211 71.3269 87.7182 72.1322C87.0914 69.9628 86.5575 68.2852 86.1264 66.5848C85.6952 64.8844 85.3435 63.1287 84.957 61.386L84.9616 61.4066Z" fill="black"/>
<path d="M26.9585 83.1609C24.7172 83.658 22.7084 84.0605 20.723 84.544C18.7376 85.0275 16.7398 84.9691 14.8534 86.3853C14.7713 84.7262 15.557 83.6242 16.2148 82.529C16.9394 81.322 17.9159 80.2532 18.6166 79.0353C20.3459 76.0358 21.9509 72.9615 23.6677 69.9541C24.7856 67.991 25.9377 66.0365 27.2395 64.1729C28.2429 62.7152 29.098 62.4608 30.7021 62.763C30.5121 65.3832 31.1868 67.8656 32.1373 70.3029C33.1854 73.0099 34.38 73.5809 37.0367 72.4522C38.515 71.8223 39.9682 71.0793 41.4351 70.3979C41.9887 70.1457 42.5724 69.9569 43.1042 69.7526C43.8463 70.6667 43.4154 71.3987 43.0793 72.072C41.6864 75.0076 40.3008 77.9523 38.8159 80.8382C36.7823 84.8004 34.6322 88.7237 32.5752 92.6534C32.148 93.5714 31.616 94.4368 30.9899 95.2325C28.4807 91.5553 28.1031 87.3728 26.9585 83.1609ZM30.8892 92.7847C32.8987 90.5861 41.5007 73.6842 41.6076 71.735C40.0191 72.3786 38.4922 73.1056 36.8991 73.6316C33.7427 74.6715 32.1079 73.7936 31.076 70.5761C30.5769 69.031 30.1977 67.4431 29.7386 65.8838C29.5824 65.4534 29.4008 65.0326 29.1948 64.6237C28.9263 64.8235 28.7778 64.8834 28.7109 64.9953C25.4686 70.4787 22.2351 75.9692 19.0103 81.4667C18.6134 82.3335 18.2857 83.2304 18.0303 84.1489L27.8436 81.9721C29.0467 85.6695 29.1092 89.4526 30.8892 92.7847Z" fill="black"/>
<path d="M40.4024 25.2571C41.2757 24.9394 42.0475 24.601 42.8528 24.39C43.6564 24.2254 44.4677 24.1013 45.2837 24.018C46.7845 27.234 47.461 30.9403 48.6287 34.4783C49.7483 37.9047 50.8894 41.3227 52.052 44.7324C52.2248 45.0934 52.4462 45.429 52.7101 45.7298C54.0363 45.5327 55.2678 45.2488 56.5077 45.1733C56.9806 45.1658 57.4502 45.2533 57.8886 45.4307C58.3271 45.6081 58.7254 45.8717 59.0601 46.2059C59.3948 46.5401 59.659 46.9381 59.837 47.3762C60.015 47.8144 60.1032 48.2838 60.0964 48.7568C60.0016 49.1489 59.7705 49.4945 59.4444 49.732C59.1482 49.937 58.809 50.0713 58.4527 50.1246L42.111 53.7494C41.458 52.6052 40.7868 51.4272 40.0654 50.1688C41.9196 48.0478 44.7064 48.6 47.1827 47.4844C46.0583 41.1754 43.3227 35.2129 41.9996 28.7862C41.7332 29.3846 41.4685 30.015 41.2119 30.6328C40.4246 32.478 38.9685 33.957 37.1359 34.773C36.8394 34.9197 36.4077 34.7728 35.5127 34.7502C37.3101 33.2728 39.0386 32.4579 39.9394 30.6832C40.8402 28.9085 40.814 27.1614 40.4024 25.2571ZM43.9779 26.0821C44.0103 26.3499 44.0148 26.6133 44.0775 26.896C44.7165 29.9472 45.331 33.0092 46.0175 36.0553C46.7392 39.3092 47.5392 42.5512 48.3279 45.7904C48.4852 46.4998 48.6574 47.276 49.9252 47.5934C47.808 40.2857 46.8045 32.9898 43.9733 26.0615L43.9779 26.0821ZM42.4742 52.3474C45.7764 52.2082 51.0792 50.8756 52.0151 49.9884C49.2339 49.6075 49.1488 49.6372 45.6009 51.368C45.3238 51.505 44.9172 51.374 44.5711 51.3699C44.5392 51.226 44.4764 51.0889 44.4239 50.9495L46.9827 49.2331L46.8606 48.9744L41.9667 50.0599L42.4742 52.3474ZM57.7909 48.4538L54.2147 48.136C54.6731 48.5251 55.3282 48.4876 55.6393 48.7962C56.7806 49.9292 57.7701 49.1865 58.8251 48.8122C58.4718 46.7332 58.4244 46.6898 56.7002 46.5275C57.041 47.1153 57.3332 47.606 57.796 48.4526L57.7909 48.4538ZM50.3846 44.0721C50.4516 45.0065 50.2878 46.0675 51.2229 47.1222C51.6981 45.69 50.8891 44.9364 50.3897 44.0709L50.3846 44.0721Z" fill="black"/>
</svg>
