<svg width="57" height="53" viewBox="0 0 57 53" fill="none" xmlns="http://www.w3.org/2000/svg">
<path d="M49.6074 36.1923L41.8764 35.3384C41.2758 35.2742 40.6752 35.2485 40.0809 35.1522C37.9086 34.7798 36.5796 35.6658 35.6084 37.6561C33.5766 41.7523 31.3531 45.7522 29.2191 49.7841C28.8062 50.636 28.3004 51.4392 27.7112 52.1789C26.6058 53.463 25.3663 53.2126 24.7465 51.6268C24.1268 50.0409 23.5901 48.1983 22.9959 46.4905C21.9416 43.4729 20.8043 40.4939 19.8395 37.4507C19.3667 35.9547 18.6319 35.3769 17.009 35.0431C12.9901 34.2277 9.04793 32.9885 5.08015 31.9035C3.82609 31.6233 2.59562 31.2455 1.39989 30.7735C-0.293285 30.0031 -0.478579 29.0208 0.997357 27.878C2.95888 26.3628 5.15685 25.1493 7.2206 23.7625C8.93294 22.6069 10.6581 21.4576 12.2809 20.18C14.1977 18.6712 14.8367 16.6617 14.3447 14.2091C13.7058 11.2557 13.201 8.28315 12.7154 5.31054C12.5568 4.28266 12.5225 3.23925 12.6132 2.20309C12.7665 0.276992 14.07 -0.487028 15.8781 0.315512C16.8006 0.777358 17.6777 1.32554 18.4978 1.95273C21.1749 3.83388 23.8265 5.74712 26.4972 7.6347C28.4651 9.02791 30.4586 9.0279 32.5479 7.8273C36.1259 5.77279 39.7359 3.7761 43.3395 1.7537C43.4098 1.71518 43.4673 1.61884 43.544 1.606C44.4321 1.44549 45.4608 0.925464 46.1764 1.2208C47.1987 1.65738 47.2625 2.85799 46.9622 3.95586C46.4894 5.70219 46.0869 7.46777 45.5758 9.20768C45.0646 10.9476 44.4704 12.4756 43.9593 14.1192C42.6814 18.164 43.3587 20.2635 46.6236 23.0178C49.4541 25.4062 52.3037 27.7753 55.0767 30.2342C55.9968 31.0496 57.3897 31.8136 56.8977 33.3738C56.4376 34.8248 55.1406 35.4668 53.703 35.7108C52.2654 35.9547 50.93 36.0446 49.6074 36.1923ZM14.0955 1.41983C14.0045 2.78797 14.0045 4.16067 14.0955 5.52881C14.5108 8.4308 15.1625 11.3071 15.5778 14.2091C15.9931 17.1111 15.2839 19.7242 12.7026 21.4769C9.92326 23.3581 7.08001 25.1558 4.31342 27.0562C3.37419 27.6982 2.10273 28.0192 1.57241 29.4124C2.13568 29.6571 2.71155 29.8714 3.29754 30.0544C7.77008 31.2679 12.2426 32.5134 16.7151 33.637C18.6894 34.1314 20.1398 35.0687 20.849 37.0462C21.9863 40.205 23.1492 43.3574 24.2929 46.5162C24.8679 48.0956 25.4174 49.6942 26.1522 51.768C26.9764 50.5802 27.5834 49.874 28.0179 49.0714C30.1775 45.0459 32.3562 41.0268 34.4072 36.9435C35.634 34.4973 37.3271 33.1748 40.1576 33.6948C40.6645 33.7937 41.1764 33.8644 41.691 33.9066C45.1093 34.1635 48.5276 34.4524 51.9523 34.6514C52.6814 34.741 53.4204 34.6045 54.0701 34.2602C54.7199 33.916 55.2494 33.3804 55.5878 32.7253C55.0639 32.2181 54.5464 31.6852 53.9905 31.1909C50.7639 28.3467 47.499 25.541 44.2979 22.6583C43.2112 21.7886 42.4362 20.5867 42.0904 19.2347C41.7445 17.8827 41.8465 16.4542 42.3811 15.1657C43.2245 12.7196 43.889 10.2157 44.579 7.72459C45.0454 6.03604 45.6716 4.36034 45.4288 2.26731C44.6174 2.6718 44.0104 2.94144 43.429 3.26246C39.8956 5.22708 36.4007 7.23664 32.829 9.16916C30.548 10.4147 28.2223 10.4532 26.018 8.94443C23.3345 7.08895 20.6957 5.16288 18.0122 3.3074C16.9324 2.54339 15.9356 1.52897 14.0955 1.41983Z" fill="black"/>
</svg>
