<svg width="79" height="68" viewBox="0 0 79 68" fill="none" xmlns="http://www.w3.org/2000/svg">
<path d="M64.5546 41.3539C64.1586 44.4305 62.3554 46.8062 60.4346 49.0267C58.8936 50.8138 56.9941 52.2905 55.2766 53.9332C54.5542 54.618 53.8051 54.3505 53.0668 54.0776C52.2107 53.762 51.3813 53.3661 50.3326 52.9112C49.8702 57.8621 50.6042 62.8516 52.4728 67.4596C51.8632 67.4233 51.257 67.3429 50.659 67.2188C47.5075 66.2503 44.8428 64.3883 42.2906 62.4032C38.8608 59.7279 35.6933 56.7583 34.0239 52.6223C33.3867 50.8832 32.898 49.0933 32.5632 47.2717C32.5106 46.8189 32.3395 46.388 32.067 46.0225C31.7946 45.6571 31.4305 45.3699 31.0115 45.1903C21.4981 40.6958 14.4246 33.5741 9.45384 24.4192C6.46127 19.0662 4.3732 13.2557 3.27388 7.22229C2.9689 5.46729 2.33218 3.91556 0.90356 2.75982C0.623105 2.53095 0.390381 2.24919 0.218665 1.93052C-0.241489 1.07442 0.0314112 0.325318 0.97312 0.111294C1.66079 -0.063496 2.38472 -0.0318358 3.05452 0.202278C5.16802 1.14934 7.37247 1.2349 9.60903 1.15464C23.3227 0.662381 34.8586 5.81506 44.9231 14.7667C46.8547 16.4842 48.6686 18.3462 50.4717 20.1975C51.0817 20.8182 51.6007 21.1607 52.5263 20.861C57.053 19.4003 61.2478 20.5507 65.1003 22.921C67.6956 24.607 70.1963 26.4343 72.5912 28.3947C74.5602 29.9249 76.4276 31.605 78.5036 33.3226C77.0643 34.1787 75.8283 33.2209 74.6191 33.4563C73.2868 33.7078 71.9063 33.7079 70.5633 33.9165C69.2203 34.1252 68.0218 34.4195 66.759 34.6977C65.4963 34.9759 64.2549 35.2863 62.8691 35.6126C63.4951 36.9021 64.1265 38.2237 64.7739 39.5453C65.1217 40.2463 65.309 40.9044 64.4957 41.4288C64.4957 40.0162 63.5058 39.0852 62.8209 38.0044C62.2859 37.1964 61.8364 36.3564 61.2157 35.329C65.7594 33.5661 70.5508 32.5245 75.4163 32.2418C74.2392 31.2733 73.4794 30.6366 72.7089 30.0159C70.6329 28.3465 68.6531 26.538 66.4487 25.0559C62.4143 22.3431 58.0963 20.4757 53.04 21.7545C52.6097 21.7975 52.1776 21.819 51.7452 21.8187C51.3565 21.8709 50.9609 21.8215 50.5971 21.6752C50.2332 21.5289 49.9135 21.2908 49.6691 20.9841C47.5931 18.8813 45.5331 16.7517 43.3126 14.8094C36.6499 8.90648 28.5692 4.83388 19.8608 2.98993C16.2117 2.20874 12.5679 2.17665 8.89203 2.2034C6.79459 2.2034 4.70786 2.20338 2.75489 1.24027C2.39639 1.05835 1.87201 1.24027 1.42255 1.24027L1.12828 1.56129C3.70193 3.31094 4.12462 6.03979 4.80415 8.67764C5.48368 11.3155 6.24347 14.0978 7.18518 16.7036C7.99132 18.8636 8.94048 20.9675 10.0264 23.0013C14.2266 31.1075 20.0641 37.7047 28.0472 42.3063C29.2939 43.0233 30.4283 43.9115 31.6857 44.6178C32.2847 44.9284 32.7952 45.3857 33.1695 45.9471C33.5437 46.5086 33.7696 47.1558 33.8259 47.8282C34.2948 51.2053 35.7781 54.3604 38.0797 56.876C40.961 60.1095 44.3762 62.8242 48.1763 64.9019C48.8933 65.2872 49.621 65.6618 50.5359 66.138C48.813 57.0419 48.5883 53.5426 49.6156 51.3488C50.6001 51.7662 51.6167 52.1247 52.5638 52.6116C53.6339 53.1466 54.4472 53.0985 55.4638 52.2371C58.626 49.5618 61.3495 46.5654 63.2543 42.8253C63.6231 42.2812 64.0601 41.7867 64.5546 41.3539Z" fill="black"/>
</svg>
