<svg width="56" height="82" viewBox="0 0 56 82" fill="none" xmlns="http://www.w3.org/2000/svg">
<path d="M29.5203 68.8756C30.5125 69.8026 30.0568 70.6601 29.4106 71.5292C29.0587 72.0101 28.5222 72.4968 28.4645 73.024C28.2107 75.5038 26.6011 76.4482 24.4261 76.8654C24.0454 76.9349 23.6646 76.9871 23.3358 77.0392C23.1858 77.2015 23.03 77.2999 22.9896 77.4274C21.7724 81.3615 17.7975 82.642 14.336 81.7091C12.5917 81.3295 10.9538 80.5634 9.54189 79.4669C7.41887 77.6939 6.08044 75.6603 7.18234 72.7169C5.51507 71.3032 3.3459 70.3182 3.36898 67.7168C3.36898 66.2857 3.57665 64.9125 4.85162 64.0202C3.75549 60.4106 3.95165 59.9645 7.60349 57.4094C7.9554 54.3154 8.34193 51.2273 8.63038 48.1391C8.72269 47.1889 8.9073 46.2445 7.85733 45.4217C1.9267 40.7866 -0.311702 34.4132 0.0344434 27.0839C0.386358 19.5924 2.99399 12.9062 8.2727 7.5294C13.0495 2.6625 19.1128 0.524536 25.8569 0.0668156C33.4663 -0.44305 40.0489 1.97884 45.7949 6.86312C49.8909 10.3395 53.1966 14.4763 54.7427 19.7141C57.3792 28.6657 55.8619 36.9278 50.2601 44.4136C46.7808 49.0628 41.8943 52.4538 36.3335 54.0779C35.5457 54.3757 34.7753 54.7181 34.0259 55.1034C33.7086 57.3572 33.449 59.5241 33.074 61.6563C32.5836 64.2636 32.0586 64.6518 29.4337 64.3331C27.9761 64.1247 26.5358 63.809 25.1242 63.3887C20.1166 62.0214 15.1033 60.6829 10.1246 59.1649C8.64192 58.713 7.50541 59.2634 6.39775 59.8312C5.00163 60.5555 5.24392 62.5949 6.71504 63.4698C7.39175 63.8569 8.1232 64.1382 8.88423 64.3041C14.8552 65.6194 20.7685 67.2938 26.9242 67.5372C28.0797 67.6112 29.2397 67.5646 30.3856 67.3981C31.1894 67.1738 31.964 66.8548 32.6933 66.4479C32.7971 67.5198 32.4798 68.0876 31.2798 68.4816C30.7029 68.6728 30.126 68.7944 29.5491 68.9451C21.9581 68.5212 14.4451 67.1848 7.17081 64.9647C6.12083 64.6402 5.57852 64.9009 5.2093 66.1234C5.9067 66.5807 6.64671 66.9688 7.41887 67.2822C11.8668 68.6264 16.309 70.0344 20.8205 71.1352C22.7971 71.5308 24.822 71.6226 26.8261 71.4075C28.2164 71.3264 29.6356 70.7818 29.5203 68.8756ZM22.5973 61.384C24.8415 61.9634 27.0684 62.6645 29.3414 63.1222C31.1875 63.493 31.5856 63.157 31.9029 61.384C32.2095 59.9395 32.4024 58.4729 32.4798 56.998C32.5317 54.6457 33.7951 53.4579 35.8893 52.8901C36.2643 52.7916 36.6393 52.6815 37.0027 52.5483C46.4698 49.0719 52.3312 42.3567 54.3504 32.5302C56.185 23.5844 53.3697 15.8553 46.9717 9.49935C39.3969 1.96724 30.3568 -0.558918 20.0243 2.25114C15.1437 3.57216 10.7938 5.91291 7.62655 10.0787C2.83244 16.3594 0.605578 23.3468 1.47094 31.2845C2.04785 36.6613 4.27472 41.1342 8.63038 44.3846C9.11493 44.7015 9.49622 45.1542 9.72697 45.6867C9.95771 46.2192 10.0277 46.808 9.92841 47.3801C9.69765 49.4717 9.46691 51.5633 9.28229 53.6607C9.17268 54.9643 9.13806 56.2738 9.06307 57.6296L15.4725 59.2229C15.6283 59.0027 15.7783 58.8926 15.8013 58.7593C16.5109 54.6167 17.3359 50.4914 17.8667 46.3256C18.4037 42.5085 17.706 38.6191 15.8763 35.2302C15.2029 34.0018 14.6243 32.7234 14.1456 31.4062C12.7033 27.4084 14.3822 25.1372 18.5994 25.2589C18.8312 25.2655 19.0625 25.2867 19.2917 25.3226C21.4955 25.6412 23.5204 26.6436 25.7703 26.8464C26.5953 26.9159 27.3972 27.7097 28.078 28.3007C28.4646 28.7067 28.7928 29.1649 29.053 29.6622C33.0452 28.0225 34.0894 28.5034 36.322 32.6635C36.8181 32.6635 37.3547 32.6635 37.8912 32.6635C40.3661 32.7272 41.3527 33.8223 41.3181 36.3311C41.2834 38.8398 39.5873 40.2767 37.6085 41.2849C35.8191 42.2212 33.9405 42.9743 32.001 43.5329C28.7645 44.4136 27.1261 46.65 26.203 49.6397C25.0146 53.5216 23.8377 57.3804 22.5973 61.384ZM21.5935 27.1245C20.7365 26.8719 19.8633 26.6783 18.9801 26.5451C15.2764 26.2264 14.0706 27.7908 15.3514 31.3135C15.9163 32.7651 16.5674 34.1814 17.3013 35.5546C18.7672 38.3266 19.4269 41.4567 19.2051 44.5874C19.0032 47.2932 18.5821 49.9931 18.1551 52.6989C17.7917 54.9817 17.2898 57.2414 16.8109 59.698L21.4839 61.1001C21.7435 60.3643 21.98 59.7965 22.1531 59.2113C23.0877 56.0014 23.9646 52.7742 24.9511 49.5818C26.0127 46.1518 27.778 43.3301 31.6029 42.4552C32.3581 42.2827 33.0929 42.0302 33.7951 41.702C35.3355 40.9836 36.8758 40.2535 38.3585 39.425C38.8618 39.1178 39.2854 38.695 39.5943 38.1914C39.9032 37.6878 40.0886 37.1177 40.1354 36.528C40.3373 35.1838 39.8123 34.2394 38.7392 33.9613C37.2797 33.5847 36.3624 34.0367 35.8547 35.3924C35.7684 35.6912 35.6664 35.9852 35.549 36.2731C35.0471 37.2812 34.2509 37.5941 33.4952 37.1132C32.7394 36.6323 32.6298 35.769 33.2817 34.9115C33.5208 34.6038 33.7915 34.3222 34.0894 34.0714C34.8913 33.3935 34.8336 32.6287 34.4355 31.7538C33.5529 29.8187 32.0356 29.5464 30.201 31.018C30.3164 31.7828 30.4664 32.5418 30.5356 33.3356C30.6279 34.2395 30.4952 35.207 29.5029 35.433C28.8279 35.5836 27.7376 35.5199 27.3972 35.0969C26.9829 34.4003 26.8566 33.5684 27.0453 32.7794C27.2069 31.9972 27.8184 31.3077 28.3088 30.4618C27.2069 29.4073 26.4396 28.0052 24.6627 28.1442C24.7231 29.2716 24.7135 30.4017 24.6339 31.5279C24.4665 32.8315 23.5262 33.5384 22.3262 33.8454C21.7582 33.978 21.1646 33.9479 20.6128 33.7584C20.0611 33.5689 19.5733 33.2277 19.2051 32.7736C18.4955 31.6727 18.9051 30.6472 19.534 29.7202C20.0243 28.88 20.6878 28.2137 21.5993 27.1303L21.5935 27.1245ZM27.5934 72.8039C19.4763 73.1805 12.213 69.9416 4.62086 67.6414C4.75355 69.762 6.2189 70.689 7.78233 71.2916C11.2438 72.63 14.7571 73.8525 18.2936 74.9939C19.7047 75.4099 21.1581 75.6646 22.6262 75.753C25.2454 75.9731 26.6934 75.0866 27.5991 72.8096L27.5934 72.8039ZM8.40538 73.1746C7.60925 74.9128 8.15153 76.2918 9.3515 77.607C11.238 79.6697 13.6726 80.5851 16.3263 80.8864C17.5121 80.9827 18.6965 80.6834 19.6957 80.035C20.6949 79.3866 21.4533 78.4252 21.8531 77.2999L8.40538 73.1746ZM23.4973 29.7202C23.4166 29.5869 23.2031 28.8569 22.7242 28.5614C22.4762 28.4165 21.7147 29.0133 21.2705 29.3783C20.9008 29.6565 20.62 30.0372 20.4628 30.4734C20.3185 31.0006 20.1801 31.7944 20.4628 32.1073C20.6897 32.291 20.9542 32.4221 21.2375 32.4912C21.5207 32.5603 21.8157 32.5657 22.1012 32.507C23.2146 32.2869 23.6646 31.412 23.5031 29.7434L23.4973 29.7202ZM27.8818 34.2684C29.7164 33.747 29.7337 33.689 28.6491 31.9508C28.401 32.7678 28.2049 33.353 27.8876 34.2916L27.8818 34.2684Z" fill="black"/>
</svg>
