<svg width="11" height="9" viewBox="0 0 11 9" fill="none" xmlns="http://www.w3.org/2000/svg">
<path d="M5.74275 7.35359H2.84609C1.39775 7.35359 0.916504 6.59734 0.916504 5.83749V2.80529C0.916504 1.66731 1.39775 1.28918 2.84609 1.28918H5.74275C7.19109 1.28918 7.67234 1.66731 7.67234 2.80529V5.83749C7.67234 6.97546 7.1865 7.35359 5.74275 7.35359Z" fill="white"/>
<path d="M8.94653 6.15806L7.67236 5.45582V3.18347L8.94653 2.48124C9.56986 2.13913 10.0832 2.348 10.0832 2.9494V5.6935C10.0832 6.2949 9.56986 6.50377 8.94653 6.15806Z" fill="white"/>
<path d="M5.271 3.96128C5.65069 3.96128 5.9585 3.71943 5.9585 3.4211C5.9585 3.12277 5.65069 2.88092 5.271 2.88092C4.8913 2.88092 4.5835 3.12277 4.5835 3.4211C4.5835 3.71943 4.8913 3.96128 5.271 3.96128Z" fill="white"/>
</svg>
