<svg width="17" height="17" viewBox="0 0 17 17" fill="none" xmlns="http://www.w3.org/2000/svg">
<path d="M8.51417 2.06128C6.16958 2.06128 4.26417 3.9667 4.26417 6.31128V8.35836C4.26417 8.79045 4.08 9.4492 3.86042 9.81753L3.04583 11.1704C2.54292 12.0063 2.89 12.9342 3.81083 13.2459C6.86375 14.2659 10.1575 14.2659 13.2104 13.2459C14.0675 12.9625 14.4429 11.9496 13.9754 11.1704L13.1608 9.81753C12.9483 9.4492 12.7642 8.79045 12.7642 8.35836V6.31128C12.7642 3.97378 10.8517 2.06128 8.51417 2.06128Z" stroke="#292D32" stroke-width="1.5" stroke-miterlimit="10" stroke-linecap="round"/>
<path d="M9.82445 2.26665C9.60486 2.2029 9.3782 2.15331 9.14445 2.12498C8.46445 2.03998 7.81278 2.08956 7.20361 2.26665C7.40903 1.74248 7.91903 1.37415 8.51403 1.37415C9.10903 1.37415 9.61903 1.74248 9.82445 2.26665Z" stroke="#292D32" stroke-width="1.5" stroke-miterlimit="10" stroke-linecap="round" stroke-linejoin="round"/>
<path d="M10.6392 13.5009C10.6392 14.6696 9.68291 15.6259 8.51416 15.6259C7.93333 15.6259 7.39499 15.385 7.01249 15.0025C6.62999 14.62 6.38916 14.0817 6.38916 13.5009" stroke="#292D32" stroke-width="1.5" stroke-miterlimit="10"/>
</svg>
