<svg width="17" height="17" viewBox="0 0 17 17" fill="none" xmlns="http://www.w3.org/2000/svg">
<path d="M8.5 10.625C9.6736 10.625 10.625 9.6736 10.625 8.5C10.625 7.32639 9.6736 6.375 8.5 6.375C7.32639 6.375 6.375 7.32639 6.375 8.5C6.375 9.6736 7.32639 10.625 8.5 10.625Z" stroke="#292D32" stroke-width="1.5" stroke-miterlimit="10" stroke-linecap="round" stroke-linejoin="round"/>
<path d="M1.4165 9.12331V7.87664C1.4165 7.13997 2.01859 6.53081 2.76234 6.53081C4.04442 6.53081 4.56859 5.62414 3.924 4.51206C3.55567 3.87456 3.77525 3.04581 4.41984 2.67748L5.64525 1.97623C6.20484 1.64331 6.92734 1.84164 7.26025 2.40123L7.33817 2.53581C7.97567 3.64789 9.024 3.64789 9.66859 2.53581L9.7465 2.40123C10.0794 1.84164 10.8019 1.64331 11.3615 1.97623L12.5869 2.67748C13.2315 3.04581 13.4511 3.87456 13.0828 4.51206C12.4382 5.62414 12.9623 6.53081 14.2444 6.53081C14.9811 6.53081 15.5903 7.13289 15.5903 7.87664V9.12331C15.5903 9.85997 14.9882 10.4691 14.2444 10.4691C12.9623 10.4691 12.4382 11.3758 13.0828 12.4879C13.4511 13.1325 13.2315 13.9541 12.5869 14.3225L11.3615 15.0237C10.8019 15.3566 10.0794 15.1583 9.7465 14.5987L9.66859 14.4641C9.03109 13.3521 7.98275 13.3521 7.33817 14.4641L7.26025 14.5987C6.92734 15.1583 6.20484 15.3566 5.64525 15.0237L4.41984 14.3225C3.77525 13.9541 3.55567 13.1254 3.924 12.4879C4.56859 11.3758 4.04442 10.4691 2.76234 10.4691C2.01859 10.4691 1.4165 9.85997 1.4165 9.12331Z" stroke="#292D32" stroke-width="1.5" stroke-miterlimit="10" stroke-linecap="round" stroke-linejoin="round"/>
</svg>
