<svg xmlns="http://www.w3.org/2000/svg" width="24" height="24" fill="none" viewBox="0 0 24 24"><path fill="#4285F4" d="M20.16 12.1932C20.16 11.5905 20.1059 11.011 20.0055 10.4546H12V13.7425H16.5746C16.3775 14.8051 15.7786 15.7053 14.8784 16.308V18.4407H17.6255C19.2327 16.961 20.16 14.7819 20.16 12.1932Z" clipRule="evenodd" fillRule="evenodd"/><path fill="#34A853" d="M12 20.5C14.295 20.5 16.2191 19.7389 17.6254 18.4407L14.8784 16.3079C14.1173 16.8179 13.1436 17.1193 12 17.1193C9.78611 17.1193 7.91224 15.6241 7.24383 13.615H4.40405V15.8173C5.80269 18.5952 8.67724 20.5 12 20.5Z" clipRule="evenodd" fillRule="evenodd"/><path fill="#FBBC05" d="M7.24387 13.6151C7.07387 13.1051 6.97728 12.5604 6.97728 12.0001C6.97728 11.4399 7.07387 10.8951 7.24387 10.3851V8.18286H4.40409C3.82841 9.33036 3.5 10.6285 3.5 12.0001C3.5 13.3717 3.82841 14.6699 4.40409 15.8174L7.24387 13.6151Z" clipRule="evenodd" fillRule="evenodd"/><path fill="#EA4335" d="M12 6.88069C13.2479 6.88069 14.3684 7.30955 15.2493 8.15183L17.6873 5.71387C16.2152 4.34227 14.2911 3.5 12 3.5C8.67724 3.5 5.80269 5.40478 4.40405 8.18273L7.24383 10.385C7.91224 8.37592 9.78611 6.88069 12 6.88069Z" clipRule="evenodd" fillRule="evenodd"/></svg>